<?xml version="1.0" encoding="utf-8" standalone="no"?>
<!DOCTYPE svg PUBLIC "-//W3C//DTD SVG 1.1//EN"
  "http://www.w3.org/Graphics/SVG/1.1/DTD/svg11.dtd">
<svg xmlns:xlink="http://www.w3.org/1999/xlink" width="921.6pt" height="498.24pt" viewBox="0 0 921.6 498.24" xmlns="http://www.w3.org/2000/svg" version="1.1">
 <metadata>
  <rdf:RDF xmlns:dc="http://purl.org/dc/elements/1.1/" xmlns:cc="http://creativecommons.org/ns#" xmlns:rdf="http://www.w3.org/1999/02/22-rdf-syntax-ns#">
   <cc:Work>
    <dc:type rdf:resource="http://purl.org/dc/dcmitype/StillImage"/>
    <dc:date>2026-01-30T13:26:04.586583</dc:date>
    <dc:format>image/svg+xml</dc:format>
    <dc:creator>
     <cc:Agent>
      <dc:title>Matplotlib v3.10.7, https://matplotlib.org/</dc:title>
     </cc:Agent>
    </dc:creator>
   </cc:Work>
  </rdf:RDF>
 </metadata>
 <defs>
  <style type="text/css">*{stroke-linejoin: round; stroke-linecap: butt}</style>
 </defs>
 <g id="figure_1">
  <g id="patch_1">
   <path d="M 0 498.24 
L 921.6 498.24 
L 921.6 0 
L 0 0 
z
" style="fill: #ffffff"/>
  </g>
  <g id="axes_1">
   <g id="patch_2">
    <path d="M 62.545455 450.502646 
L 909.032727 450.502646 
L 909.032727 35.771077 
L 62.545455 35.771077 
z
" style="fill: #fbfbfb"/>
   </g>
   <g id="FillBetweenPolyCollection_1">
    <defs>
     <path id="m3d844244b8" d="M 101.022149 -110.949098 
L 101.022149 -66.588789 
L 107.48882 -66.588789 
L 107.48882 -110.949098 
L 107.48882 -110.949098 
L 101.022149 -110.949098 
z
" style="stroke: #dff0d8; stroke-opacity: 0.85"/>
    </defs>
    <g clip-path="url(#p6ae023592d)">
     <use xlink:href="#m3d844244b8" x="0" y="498.24" style="fill: #dff0d8; fill-opacity: 0.85; stroke: #dff0d8; stroke-opacity: 0.85"/>
    </g>
   </g>
   <g id="FillBetweenPolyCollection_2">
    <defs>
     <path id="m21f3b6a227" d="M 107.48882 -110.949098 
L 107.48882 -66.588789 
L 113.955491 -66.588789 
L 113.955491 -110.949098 
L 113.955491 -110.949098 
L 107.48882 -110.949098 
z
" style="stroke: #dff0d8; stroke-opacity: 0.85"/>
    </defs>
    <g clip-path="url(#p6ae023592d)">
     <use xlink:href="#m21f3b6a227" x="0" y="498.24" style="fill: #dff0d8; fill-opacity: 0.85; stroke: #dff0d8; stroke-opacity: 0.85"/>
    </g>
   </g>
   <g id="FillBetweenPolyCollection_3">
    <defs>
     <path id="m33efdd18ea" d="M 113.955491 -111.356281 
L 113.955491 -66.588789 
L 120.422163 -66.588789 
L 120.422163 -111.356281 
L 120.422163 -111.356281 
L 113.955491 -111.356281 
z
" style="stroke: #dff0d8; stroke-opacity: 0.85"/>
    </defs>
    <g clip-path="url(#p6ae023592d)">
     <use xlink:href="#m33efdd18ea" x="0" y="498.24" style="fill: #dff0d8; fill-opacity: 0.85; stroke: #dff0d8; stroke-opacity: 0.85"/>
    </g>
   </g>
   <g id="FillBetweenPolyCollection_4">
    <defs>
     <path id="m0d8efc3a3d" d="M 120.422163 -111.401524 
L 120.422163 -66.588789 
L 126.888834 -66.588789 
L 126.888834 -111.401524 
L 126.888834 -111.401524 
L 120.422163 -111.401524 
z
" style="stroke: #dff0d8; stroke-opacity: 0.85"/>
    </defs>
    <g clip-path="url(#p6ae023592d)">
     <use xlink:href="#m0d8efc3a3d" x="0" y="498.24" style="fill: #dff0d8; fill-opacity: 0.85; stroke: #dff0d8; stroke-opacity: 0.85"/>
    </g>
   </g>
   <g id="FillBetweenPolyCollection_5">
    <defs>
     <path id="m89b7f385c9" d="M 126.888834 -111.740843 
L 126.888834 -66.588789 
L 133.355505 -66.588789 
L 133.355505 -111.740843 
L 133.355505 -111.740843 
L 126.888834 -111.740843 
z
" style="stroke: #dff0d8; stroke-opacity: 0.85"/>
    </defs>
    <g clip-path="url(#p6ae023592d)">
     <use xlink:href="#m89b7f385c9" x="0" y="498.24" style="fill: #dff0d8; fill-opacity: 0.85; stroke: #dff0d8; stroke-opacity: 0.85"/>
    </g>
   </g>
   <g id="FillBetweenPolyCollection_6">
    <defs>
     <path id="ma1709235d2" d="M 133.355505 -111.853949 
L 133.355505 -66.588789 
L 139.822177 -66.588789 
L 139.822177 -111.853949 
L 139.822177 -111.853949 
L 133.355505 -111.853949 
z
" style="stroke: #dff0d8; stroke-opacity: 0.85"/>
    </defs>
    <g clip-path="url(#p6ae023592d)">
     <use xlink:href="#ma1709235d2" x="0" y="498.24" style="fill: #dff0d8; fill-opacity: 0.85; stroke: #dff0d8; stroke-opacity: 0.85"/>
    </g>
   </g>
   <g id="FillBetweenPolyCollection_7">
    <defs>
     <path id="m6ecc701084" d="M 139.822177 -112.148026 
L 139.822177 -66.588789 
L 146.288848 -66.588789 
L 146.288848 -112.148026 
L 146.288848 -112.148026 
L 139.822177 -112.148026 
z
" style="stroke: #dff0d8; stroke-opacity: 0.85"/>
    </defs>
    <g clip-path="url(#p6ae023592d)">
     <use xlink:href="#m6ecc701084" x="0" y="498.24" style="fill: #dff0d8; fill-opacity: 0.85; stroke: #dff0d8; stroke-opacity: 0.85"/>
    </g>
   </g>
   <g id="FillBetweenPolyCollection_8">
    <defs>
     <path id="m4571ee7cda" d="M 146.288848 -112.306375 
L 146.288848 -66.588789 
L 152.755519 -66.588789 
L 152.755519 -112.306375 
L 152.755519 -112.306375 
L 146.288848 -112.306375 
z
" style="stroke: #dff0d8; stroke-opacity: 0.85"/>
    </defs>
    <g clip-path="url(#p6ae023592d)">
     <use xlink:href="#m4571ee7cda" x="0" y="498.24" style="fill: #dff0d8; fill-opacity: 0.85; stroke: #dff0d8; stroke-opacity: 0.85"/>
    </g>
   </g>
   <g id="FillBetweenPolyCollection_9">
    <defs>
     <path id="m30d6a59b1a" d="M 152.755519 -112.487345 
L 152.755519 -66.588789 
L 159.22219 -66.588789 
L 159.22219 -112.487345 
L 159.22219 -112.487345 
L 152.755519 -112.487345 
z
" style="stroke: #dff0d8; stroke-opacity: 0.85"/>
    </defs>
    <g clip-path="url(#p6ae023592d)">
     <use xlink:href="#m30d6a59b1a" x="0" y="498.24" style="fill: #dff0d8; fill-opacity: 0.85; stroke: #dff0d8; stroke-opacity: 0.85"/>
    </g>
   </g>
   <g id="FillBetweenPolyCollection_10">
    <defs>
     <path id="m262d67d531" d="M 159.22219 -112.555209 
L 159.22219 -66.588789 
L 165.688862 -66.588789 
L 165.688862 -112.555209 
L 165.688862 -112.555209 
L 159.22219 -112.555209 
z
" style="stroke: #dff0d8; stroke-opacity: 0.85"/>
    </defs>
    <g clip-path="url(#p6ae023592d)">
     <use xlink:href="#m262d67d531" x="0" y="498.24" style="fill: #dff0d8; fill-opacity: 0.85; stroke: #dff0d8; stroke-opacity: 0.85"/>
    </g>
   </g>
   <g id="FillBetweenPolyCollection_11">
    <defs>
     <path id="m4bbdffcd20" d="M 165.688862 -112.7588 
L 165.688862 -66.588789 
L 172.155533 -66.588789 
L 172.155533 -112.7588 
L 172.155533 -112.7588 
L 165.688862 -112.7588 
z
" style="stroke: #dff0d8; stroke-opacity: 0.85"/>
    </defs>
    <g clip-path="url(#p6ae023592d)">
     <use xlink:href="#m4bbdffcd20" x="0" y="498.24" style="fill: #dff0d8; fill-opacity: 0.85; stroke: #dff0d8; stroke-opacity: 0.85"/>
    </g>
   </g>
   <g id="FillBetweenPolyCollection_12">
    <defs>
     <path id="mb4af1b9175" d="M 172.155533 -112.871906 
L 172.155533 -66.588789 
L 178.622204 -66.588789 
L 178.622204 -112.871906 
L 178.622204 -112.871906 
L 172.155533 -112.871906 
z
" style="stroke: #dff0d8; stroke-opacity: 0.85"/>
    </defs>
    <g clip-path="url(#p6ae023592d)">
     <use xlink:href="#mb4af1b9175" x="0" y="498.24" style="fill: #dff0d8; fill-opacity: 0.85; stroke: #dff0d8; stroke-opacity: 0.85"/>
    </g>
   </g>
   <g id="FillBetweenPolyCollection_13">
    <defs>
     <path id="m1d7a95edee" d="M 178.622204 -112.93977 
L 178.622204 -66.588789 
L 185.088876 -66.588789 
L 185.088876 -112.93977 
L 185.088876 -112.93977 
L 178.622204 -112.93977 
z
" style="stroke: #dff0d8; stroke-opacity: 0.85"/>
    </defs>
    <g clip-path="url(#p6ae023592d)">
     <use xlink:href="#m1d7a95edee" x="0" y="498.24" style="fill: #dff0d8; fill-opacity: 0.85; stroke: #dff0d8; stroke-opacity: 0.85"/>
    </g>
   </g>
   <g id="FillBetweenPolyCollection_14">
    <defs>
     <path id="m82e4048f49" d="M 185.088876 -113.165983 
L 185.088876 -66.588789 
L 191.555547 -66.588789 
L 191.555547 -113.165983 
L 191.555547 -113.165983 
L 185.088876 -113.165983 
z
" style="stroke: #dff0d8; stroke-opacity: 0.85"/>
    </defs>
    <g clip-path="url(#p6ae023592d)">
     <use xlink:href="#m82e4048f49" x="0" y="498.24" style="fill: #dff0d8; fill-opacity: 0.85; stroke: #dff0d8; stroke-opacity: 0.85"/>
    </g>
   </g>
   <g id="FillBetweenPolyCollection_15">
    <defs>
     <path id="m001847c5a7" d="M 191.555547 -113.211225 
L 191.555547 -66.588789 
L 198.022218 -66.588789 
L 198.022218 -113.211225 
L 198.022218 -113.211225 
L 191.555547 -113.211225 
z
" style="stroke: #dff0d8; stroke-opacity: 0.85"/>
    </defs>
    <g clip-path="url(#p6ae023592d)">
     <use xlink:href="#m001847c5a7" x="0" y="498.24" style="fill: #dff0d8; fill-opacity: 0.85; stroke: #dff0d8; stroke-opacity: 0.85"/>
    </g>
   </g>
   <g id="FillBetweenPolyCollection_16">
    <defs>
     <path id="me7ad81e361" d="M 198.022218 -113.346953 
L 198.022218 -66.588789 
L 204.48889 -66.588789 
L 204.48889 -113.346953 
L 204.48889 -113.346953 
L 198.022218 -113.346953 
z
" style="stroke: #dff0d8; stroke-opacity: 0.85"/>
    </defs>
    <g clip-path="url(#p6ae023592d)">
     <use xlink:href="#me7ad81e361" x="0" y="498.24" style="fill: #dff0d8; fill-opacity: 0.85; stroke: #dff0d8; stroke-opacity: 0.85"/>
    </g>
   </g>
   <g id="FillBetweenPolyCollection_17">
    <defs>
     <path id="me1b21d517d" d="M 204.48889 -113.392195 
L 204.48889 -66.588789 
L 210.955561 -66.588789 
L 210.955561 -113.392195 
L 210.955561 -113.392195 
L 204.48889 -113.392195 
z
" style="stroke: #dff0d8; stroke-opacity: 0.85"/>
    </defs>
    <g clip-path="url(#p6ae023592d)">
     <use xlink:href="#me1b21d517d" x="0" y="498.24" style="fill: #dff0d8; fill-opacity: 0.85; stroke: #dff0d8; stroke-opacity: 0.85"/>
    </g>
   </g>
   <g id="FillBetweenPolyCollection_18">
    <defs>
     <path id="m9ae9c78c36" d="M 210.955561 -113.618408 
L 210.955561 -66.588789 
L 217.422232 -66.588789 
L 217.422232 -113.618408 
L 217.422232 -113.618408 
L 210.955561 -113.618408 
z
" style="stroke: #dff0d8; stroke-opacity: 0.85"/>
    </defs>
    <g clip-path="url(#p6ae023592d)">
     <use xlink:href="#m9ae9c78c36" x="0" y="498.24" style="fill: #dff0d8; fill-opacity: 0.85; stroke: #dff0d8; stroke-opacity: 0.85"/>
    </g>
   </g>
   <g id="FillBetweenPolyCollection_19">
    <defs>
     <path id="m11a63ebb4b" d="M 217.422232 -113.663651 
L 217.422232 -66.588789 
L 223.888903 -66.588789 
L 223.888903 -113.663651 
L 223.888903 -113.663651 
L 217.422232 -113.663651 
z
" style="stroke: #dff0d8; stroke-opacity: 0.85"/>
    </defs>
    <g clip-path="url(#p6ae023592d)">
     <use xlink:href="#m11a63ebb4b" x="0" y="498.24" style="fill: #dff0d8; fill-opacity: 0.85; stroke: #dff0d8; stroke-opacity: 0.85"/>
    </g>
   </g>
   <g id="FillBetweenPolyCollection_20">
    <defs>
     <path id="m3ea8d7fbe7" d="M 223.888903 -113.686272 
L 223.888903 -66.588789 
L 230.355575 -66.588789 
L 230.355575 -113.686272 
L 230.355575 -113.686272 
L 223.888903 -113.686272 
z
" style="stroke: #dff0d8; stroke-opacity: 0.85"/>
    </defs>
    <g clip-path="url(#p6ae023592d)">
     <use xlink:href="#m3ea8d7fbe7" x="0" y="498.24" style="fill: #dff0d8; fill-opacity: 0.85; stroke: #dff0d8; stroke-opacity: 0.85"/>
    </g>
   </g>
   <g id="FillBetweenPolyCollection_21">
    <defs>
     <path id="m2cf8f3cb2f" d="M 230.355575 -113.844621 
L 230.355575 -66.588789 
L 236.822246 -66.588789 
L 236.822246 -113.844621 
L 236.822246 -113.844621 
L 230.355575 -113.844621 
z
" style="stroke: #dff0d8; stroke-opacity: 0.85"/>
    </defs>
    <g clip-path="url(#p6ae023592d)">
     <use xlink:href="#m2cf8f3cb2f" x="0" y="498.24" style="fill: #dff0d8; fill-opacity: 0.85; stroke: #dff0d8; stroke-opacity: 0.85"/>
    </g>
   </g>
   <g id="FillBetweenPolyCollection_22">
    <defs>
     <path id="m2f3a18af1d" d="M 236.822246 -114.00297 
L 236.822246 -66.588789 
L 243.288917 -66.588789 
L 243.288917 -114.00297 
L 243.288917 -114.00297 
L 236.822246 -114.00297 
z
" style="stroke: #dff0d8; stroke-opacity: 0.85"/>
    </defs>
    <g clip-path="url(#p6ae023592d)">
     <use xlink:href="#m2f3a18af1d" x="0" y="498.24" style="fill: #dff0d8; fill-opacity: 0.85; stroke: #dff0d8; stroke-opacity: 0.85"/>
    </g>
   </g>
   <g id="FillBetweenPolyCollection_23">
    <defs>
     <path id="ma5943ebfbb" d="M 243.288917 -114.070834 
L 243.288917 -66.588789 
L 249.755589 -66.588789 
L 249.755589 -114.070834 
L 249.755589 -114.070834 
L 243.288917 -114.070834 
z
" style="stroke: #dff0d8; stroke-opacity: 0.85"/>
    </defs>
    <g clip-path="url(#p6ae023592d)">
     <use xlink:href="#ma5943ebfbb" x="0" y="498.24" style="fill: #dff0d8; fill-opacity: 0.85; stroke: #dff0d8; stroke-opacity: 0.85"/>
    </g>
   </g>
   <g id="FillBetweenPolyCollection_24">
    <defs>
     <path id="m5e67c385ce" d="M 249.755589 -114.116076 
L 249.755589 -66.588789 
L 256.22226 -66.588789 
L 256.22226 -114.116076 
L 256.22226 -114.116076 
L 249.755589 -114.116076 
z
" style="stroke: #dff0d8; stroke-opacity: 0.85"/>
    </defs>
    <g clip-path="url(#p6ae023592d)">
     <use xlink:href="#m5e67c385ce" x="0" y="498.24" style="fill: #dff0d8; fill-opacity: 0.85; stroke: #dff0d8; stroke-opacity: 0.85"/>
    </g>
   </g>
   <g id="FillBetweenPolyCollection_25">
    <defs>
     <path id="me00fca966a" d="M 256.22226 -114.297046 
L 256.22226 -66.588789 
L 262.688931 -66.588789 
L 262.688931 -114.297046 
L 262.688931 -114.297046 
L 256.22226 -114.297046 
z
" style="stroke: #dff0d8; stroke-opacity: 0.85"/>
    </defs>
    <g clip-path="url(#p6ae023592d)">
     <use xlink:href="#me00fca966a" x="0" y="498.24" style="fill: #dff0d8; fill-opacity: 0.85; stroke: #dff0d8; stroke-opacity: 0.85"/>
    </g>
   </g>
   <g id="FillBetweenPolyCollection_26">
    <defs>
     <path id="m6ee2e0bb8f" d="M 262.688931 -114.523259 
L 262.688931 -66.588789 
L 269.155602 -66.588789 
L 269.155602 -114.523259 
L 269.155602 -114.523259 
L 262.688931 -114.523259 
z
" style="stroke: #dff0d8; stroke-opacity: 0.85"/>
    </defs>
    <g clip-path="url(#p6ae023592d)">
     <use xlink:href="#m6ee2e0bb8f" x="0" y="498.24" style="fill: #dff0d8; fill-opacity: 0.85; stroke: #dff0d8; stroke-opacity: 0.85"/>
    </g>
   </g>
   <g id="FillBetweenPolyCollection_27">
    <defs>
     <path id="m84ff27ef5a" d="M 269.155602 -114.568501 
L 269.155602 -66.588789 
L 275.622274 -66.588789 
L 275.622274 -114.568501 
L 275.622274 -114.568501 
L 269.155602 -114.568501 
z
" style="stroke: #dff0d8; stroke-opacity: 0.85"/>
    </defs>
    <g clip-path="url(#p6ae023592d)">
     <use xlink:href="#m84ff27ef5a" x="0" y="498.24" style="fill: #dff0d8; fill-opacity: 0.85; stroke: #dff0d8; stroke-opacity: 0.85"/>
    </g>
   </g>
   <g id="FillBetweenPolyCollection_28">
    <defs>
     <path id="m699286ebd5" d="M 275.622274 -114.749472 
L 275.622274 -66.588789 
L 282.088945 -66.588789 
L 282.088945 -114.749472 
L 282.088945 -114.749472 
L 275.622274 -114.749472 
z
" style="stroke: #dff0d8; stroke-opacity: 0.85"/>
    </defs>
    <g clip-path="url(#p6ae023592d)">
     <use xlink:href="#m699286ebd5" x="0" y="498.24" style="fill: #dff0d8; fill-opacity: 0.85; stroke: #dff0d8; stroke-opacity: 0.85"/>
    </g>
   </g>
   <g id="FillBetweenPolyCollection_29">
    <defs>
     <path id="mb867c135c8" d="M 282.088945 -114.817335 
L 282.088945 -66.588789 
L 288.555616 -66.588789 
L 288.555616 -114.817335 
L 288.555616 -114.817335 
L 282.088945 -114.817335 
z
" style="stroke: #dff0d8; stroke-opacity: 0.85"/>
    </defs>
    <g clip-path="url(#p6ae023592d)">
     <use xlink:href="#mb867c135c8" x="0" y="498.24" style="fill: #dff0d8; fill-opacity: 0.85; stroke: #dff0d8; stroke-opacity: 0.85"/>
    </g>
   </g>
   <g id="FillBetweenPolyCollection_30">
    <defs>
     <path id="m1dffeaad56" d="M 288.555616 -114.975684 
L 288.555616 -66.588789 
L 295.022288 -66.588789 
L 295.022288 -114.975684 
L 295.022288 -114.975684 
L 288.555616 -114.975684 
z
" style="stroke: #dff0d8; stroke-opacity: 0.85"/>
    </defs>
    <g clip-path="url(#p6ae023592d)">
     <use xlink:href="#m1dffeaad56" x="0" y="498.24" style="fill: #dff0d8; fill-opacity: 0.85; stroke: #dff0d8; stroke-opacity: 0.85"/>
    </g>
   </g>
   <g id="FillBetweenPolyCollection_31">
    <defs>
     <path id="mcc5b191707" d="M 295.022288 -115.020927 
L 295.022288 -66.588789 
L 301.488959 -66.588789 
L 301.488959 -115.020927 
L 301.488959 -115.020927 
L 295.022288 -115.020927 
z
" style="stroke: #dff0d8; stroke-opacity: 0.85"/>
    </defs>
    <g clip-path="url(#p6ae023592d)">
     <use xlink:href="#mcc5b191707" x="0" y="498.24" style="fill: #dff0d8; fill-opacity: 0.85; stroke: #dff0d8; stroke-opacity: 0.85"/>
    </g>
   </g>
   <g id="FillBetweenPolyCollection_32">
    <defs>
     <path id="m672b0a2832" d="M 301.488959 -115.134033 
L 301.488959 -66.588789 
L 307.95563 -66.588789 
L 307.95563 -115.134033 
L 307.95563 -115.134033 
L 301.488959 -115.134033 
z
" style="stroke: #dff0d8; stroke-opacity: 0.85"/>
    </defs>
    <g clip-path="url(#p6ae023592d)">
     <use xlink:href="#m672b0a2832" x="0" y="498.24" style="fill: #dff0d8; fill-opacity: 0.85; stroke: #dff0d8; stroke-opacity: 0.85"/>
    </g>
   </g>
   <g id="FillBetweenPolyCollection_33">
    <defs>
     <path id="mc4d3cea898" d="M 307.95563 -115.201897 
L 307.95563 -66.588789 
L 314.422302 -66.588789 
L 314.422302 -115.201897 
L 314.422302 -115.201897 
L 307.95563 -115.201897 
z
" style="stroke: #dff0d8; stroke-opacity: 0.85"/>
    </defs>
    <g clip-path="url(#p6ae023592d)">
     <use xlink:href="#mc4d3cea898" x="0" y="498.24" style="fill: #dff0d8; fill-opacity: 0.85; stroke: #dff0d8; stroke-opacity: 0.85"/>
    </g>
   </g>
   <g id="FillBetweenPolyCollection_34">
    <defs>
     <path id="m4106a7d5c2" d="M 314.422302 -115.42811 
L 314.422302 -66.588789 
L 320.888973 -66.588789 
L 320.888973 -115.42811 
L 320.888973 -115.42811 
L 314.422302 -115.42811 
z
" style="stroke: #dff0d8; stroke-opacity: 0.85"/>
    </defs>
    <g clip-path="url(#p6ae023592d)">
     <use xlink:href="#m4106a7d5c2" x="0" y="498.24" style="fill: #dff0d8; fill-opacity: 0.85; stroke: #dff0d8; stroke-opacity: 0.85"/>
    </g>
   </g>
   <g id="FillBetweenPolyCollection_35">
    <defs>
     <path id="m64e8a661d2" d="M 320.888973 -115.654322 
L 320.888973 -66.588789 
L 327.355644 -66.588789 
L 327.355644 -115.654322 
L 327.355644 -115.654322 
L 320.888973 -115.654322 
z
" style="stroke: #dff0d8; stroke-opacity: 0.85"/>
    </defs>
    <g clip-path="url(#p6ae023592d)">
     <use xlink:href="#m64e8a661d2" x="0" y="498.24" style="fill: #dff0d8; fill-opacity: 0.85; stroke: #dff0d8; stroke-opacity: 0.85"/>
    </g>
   </g>
   <g id="FillBetweenPolyCollection_36">
    <defs>
     <path id="m3c761ddc27" d="M 327.355644 -115.880535 
L 327.355644 -66.588789 
L 333.822315 -66.588789 
L 333.822315 -115.880535 
L 333.822315 -115.880535 
L 327.355644 -115.880535 
z
" style="stroke: #dff0d8; stroke-opacity: 0.85"/>
    </defs>
    <g clip-path="url(#p6ae023592d)">
     <use xlink:href="#m3c761ddc27" x="0" y="498.24" style="fill: #dff0d8; fill-opacity: 0.85; stroke: #dff0d8; stroke-opacity: 0.85"/>
    </g>
   </g>
   <g id="FillBetweenPolyCollection_37">
    <defs>
     <path id="m4f8cdd6e5a" d="M 333.822315 -116.106748 
L 333.822315 -66.588789 
L 482.555755 -66.588789 
L 482.555755 -116.106748 
L 482.555755 -116.106748 
L 333.822315 -116.106748 
z
" style="stroke: #dff0d8; stroke-opacity: 0.85"/>
    </defs>
    <g clip-path="url(#p6ae023592d)">
     <use xlink:href="#m4f8cdd6e5a" x="0" y="498.24" style="fill: #dff0d8; fill-opacity: 0.85; stroke: #dff0d8; stroke-opacity: 0.85"/>
    </g>
   </g>
   <g id="FillBetweenPolyCollection_38">
    <defs>
     <path id="m2c423dd17a" d="M 482.555755 -116.129369 
L 482.555755 -66.588789 
L 489.022427 -66.588789 
L 489.022427 -116.129369 
L 489.022427 -116.129369 
L 482.555755 -116.129369 
z
" style="stroke: #dff0d8; stroke-opacity: 0.85"/>
    </defs>
    <g clip-path="url(#p6ae023592d)">
     <use xlink:href="#m2c423dd17a" x="0" y="498.24" style="fill: #dff0d8; fill-opacity: 0.85; stroke: #dff0d8; stroke-opacity: 0.85"/>
    </g>
   </g>
   <g id="FillBetweenPolyCollection_39">
    <defs>
     <path id="m5fd6b30d71" d="M 489.022427 -116.332961 
L 489.022427 -66.588789 
L 495.489098 -66.588789 
L 495.489098 -116.332961 
L 495.489098 -116.332961 
L 489.022427 -116.332961 
z
" style="stroke: #dff0d8; stroke-opacity: 0.85"/>
    </defs>
    <g clip-path="url(#p6ae023592d)">
     <use xlink:href="#m5fd6b30d71" x="0" y="498.24" style="fill: #dff0d8; fill-opacity: 0.85; stroke: #dff0d8; stroke-opacity: 0.85"/>
    </g>
   </g>
   <g id="FillBetweenPolyCollection_40">
    <defs>
     <path id="mb909a6531c" d="M 495.489098 -116.559173 
L 495.489098 -66.588789 
L 501.955769 -66.588789 
L 501.955769 -116.559173 
L 501.955769 -116.559173 
L 495.489098 -116.559173 
z
" style="stroke: #dff0d8; stroke-opacity: 0.85"/>
    </defs>
    <g clip-path="url(#p6ae023592d)">
     <use xlink:href="#mb909a6531c" x="0" y="498.24" style="fill: #dff0d8; fill-opacity: 0.85; stroke: #dff0d8; stroke-opacity: 0.85"/>
    </g>
   </g>
   <g id="FillBetweenPolyCollection_41">
    <defs>
     <path id="mfecf1b9f92" d="M 501.955769 -116.67228 
L 501.955769 -66.588789 
L 508.42244 -66.588789 
L 508.42244 -116.67228 
L 508.42244 -116.67228 
L 501.955769 -116.67228 
z
" style="stroke: #dff0d8; stroke-opacity: 0.85"/>
    </defs>
    <g clip-path="url(#p6ae023592d)">
     <use xlink:href="#mfecf1b9f92" x="0" y="498.24" style="fill: #dff0d8; fill-opacity: 0.85; stroke: #dff0d8; stroke-opacity: 0.85"/>
    </g>
   </g>
   <g id="FillBetweenPolyCollection_42">
    <defs>
     <path id="m7cabe5aeab" d="M 508.42244 -116.785386 
L 508.42244 -66.588789 
L 514.889112 -66.588789 
L 514.889112 -116.785386 
L 514.889112 -116.785386 
L 508.42244 -116.785386 
z
" style="stroke: #fde0c5; stroke-opacity: 0.85"/>
    </defs>
    <g clip-path="url(#p6ae023592d)">
     <use xlink:href="#m7cabe5aeab" x="0" y="498.24" style="fill: #fde0c5; fill-opacity: 0.85; stroke: #fde0c5; stroke-opacity: 0.85"/>
    </g>
   </g>
   <g id="FillBetweenPolyCollection_43">
    <defs>
     <path id="m73f653fdd7" d="M 514.889112 -117.011599 
L 514.889112 -66.588789 
L 521.355783 -66.588789 
L 521.355783 -117.011599 
L 521.355783 -117.011599 
L 514.889112 -117.011599 
z
" style="stroke: #fde0c5; stroke-opacity: 0.85"/>
    </defs>
    <g clip-path="url(#p6ae023592d)">
     <use xlink:href="#m73f653fdd7" x="0" y="498.24" style="fill: #fde0c5; fill-opacity: 0.85; stroke: #fde0c5; stroke-opacity: 0.85"/>
    </g>
   </g>
   <g id="FillBetweenPolyCollection_44">
    <defs>
     <path id="m54880eabca" d="M 521.355783 -117.237811 
L 521.355783 -66.588789 
L 527.822454 -66.588789 
L 527.822454 -117.237811 
L 527.822454 -117.237811 
L 521.355783 -117.237811 
z
" style="stroke: #fde0c5; stroke-opacity: 0.85"/>
    </defs>
    <g clip-path="url(#p6ae023592d)">
     <use xlink:href="#m54880eabca" x="0" y="498.24" style="fill: #fde0c5; fill-opacity: 0.85; stroke: #fde0c5; stroke-opacity: 0.85"/>
    </g>
   </g>
   <g id="FillBetweenPolyCollection_45">
    <defs>
     <path id="m1d94fbae1b" d="M 527.822454 -117.464024 
L 527.822454 -66.588789 
L 534.289126 -66.588789 
L 534.289126 -117.464024 
L 534.289126 -117.464024 
L 527.822454 -117.464024 
z
" style="stroke: #fde0c5; stroke-opacity: 0.85"/>
    </defs>
    <g clip-path="url(#p6ae023592d)">
     <use xlink:href="#m1d94fbae1b" x="0" y="498.24" style="fill: #fde0c5; fill-opacity: 0.85; stroke: #fde0c5; stroke-opacity: 0.85"/>
    </g>
   </g>
   <g id="FillBetweenPolyCollection_46">
    <defs>
     <path id="mecc2556ed8" d="M 534.289126 -117.690237 
L 534.289126 -66.588789 
L 540.755797 -66.588789 
L 540.755797 -117.690237 
L 540.755797 -117.690237 
L 534.289126 -117.690237 
z
" style="stroke: #fde0c5; stroke-opacity: 0.85"/>
    </defs>
    <g clip-path="url(#p6ae023592d)">
     <use xlink:href="#mecc2556ed8" x="0" y="498.24" style="fill: #fde0c5; fill-opacity: 0.85; stroke: #fde0c5; stroke-opacity: 0.85"/>
    </g>
   </g>
   <g id="FillBetweenPolyCollection_47">
    <defs>
     <path id="m2e5f4b3c38" d="M 540.755797 -117.916449 
L 540.755797 -66.588789 
L 547.222468 -66.588789 
L 547.222468 -117.916449 
L 547.222468 -117.916449 
L 540.755797 -117.916449 
z
" style="stroke: #fde0c5; stroke-opacity: 0.85"/>
    </defs>
    <g clip-path="url(#p6ae023592d)">
     <use xlink:href="#m2e5f4b3c38" x="0" y="498.24" style="fill: #fde0c5; fill-opacity: 0.85; stroke: #fde0c5; stroke-opacity: 0.85"/>
    </g>
   </g>
   <g id="FillBetweenPolyCollection_48">
    <defs>
     <path id="m36bedb251e" d="M 547.222468 -118.142662 
L 547.222468 -66.588789 
L 553.68914 -66.588789 
L 553.68914 -118.142662 
L 553.68914 -118.142662 
L 547.222468 -118.142662 
z
" style="stroke: #fde0c5; stroke-opacity: 0.85"/>
    </defs>
    <g clip-path="url(#p6ae023592d)">
     <use xlink:href="#m36bedb251e" x="0" y="498.24" style="fill: #fde0c5; fill-opacity: 0.85; stroke: #fde0c5; stroke-opacity: 0.85"/>
    </g>
   </g>
   <g id="FillBetweenPolyCollection_49">
    <defs>
     <path id="m2c32874c90" d="M 553.68914 -123.141963 
L 553.68914 -66.588789 
L 560.155811 -66.588789 
L 560.155811 -123.141963 
L 560.155811 -123.141963 
L 553.68914 -123.141963 
z
" style="stroke: #fde0c5; stroke-opacity: 0.85"/>
    </defs>
    <g clip-path="url(#p6ae023592d)">
     <use xlink:href="#m2c32874c90" x="0" y="498.24" style="fill: #fde0c5; fill-opacity: 0.85; stroke: #fde0c5; stroke-opacity: 0.85"/>
    </g>
   </g>
   <g id="FillBetweenPolyCollection_50">
    <defs>
     <path id="m00cecd96c1" d="M 560.155811 -123.390797 
L 560.155811 -66.588789 
L 566.622482 -66.588789 
L 566.622482 -123.390797 
L 566.622482 -123.390797 
L 560.155811 -123.390797 
z
" style="stroke: #fde0c5; stroke-opacity: 0.85"/>
    </defs>
    <g clip-path="url(#p6ae023592d)">
     <use xlink:href="#m00cecd96c1" x="0" y="498.24" style="fill: #fde0c5; fill-opacity: 0.85; stroke: #fde0c5; stroke-opacity: 0.85"/>
    </g>
   </g>
   <g id="FillBetweenPolyCollection_51">
    <defs>
     <path id="m11ac37d026" d="M 566.622482 -123.639631 
L 566.622482 -66.588789 
L 573.089153 -66.588789 
L 573.089153 -123.639631 
L 573.089153 -123.639631 
L 566.622482 -123.639631 
z
" style="stroke: #fde0c5; stroke-opacity: 0.85"/>
    </defs>
    <g clip-path="url(#p6ae023592d)">
     <use xlink:href="#m11ac37d026" x="0" y="498.24" style="fill: #fde0c5; fill-opacity: 0.85; stroke: #fde0c5; stroke-opacity: 0.85"/>
    </g>
   </g>
   <g id="FillBetweenPolyCollection_52">
    <defs>
     <path id="m630fab1b8d" d="M 573.089153 -123.888465 
L 573.089153 -66.588789 
L 579.555825 -66.588789 
L 579.555825 -123.888465 
L 579.555825 -123.888465 
L 573.089153 -123.888465 
z
" style="stroke: #fde0c5; stroke-opacity: 0.85"/>
    </defs>
    <g clip-path="url(#p6ae023592d)">
     <use xlink:href="#m630fab1b8d" x="0" y="498.24" style="fill: #fde0c5; fill-opacity: 0.85; stroke: #fde0c5; stroke-opacity: 0.85"/>
    </g>
   </g>
   <g id="FillBetweenPolyCollection_53">
    <defs>
     <path id="mac5b2088c1" d="M 579.555825 -124.137299 
L 579.555825 -66.588789 
L 586.022496 -66.588789 
L 586.022496 -124.137299 
L 586.022496 -124.137299 
L 579.555825 -124.137299 
z
" style="stroke: #fde0c5; stroke-opacity: 0.85"/>
    </defs>
    <g clip-path="url(#p6ae023592d)">
     <use xlink:href="#mac5b2088c1" x="0" y="498.24" style="fill: #fde0c5; fill-opacity: 0.85; stroke: #fde0c5; stroke-opacity: 0.85"/>
    </g>
   </g>
   <g id="FillBetweenPolyCollection_54">
    <defs>
     <path id="ma476434e3d" d="M 586.022496 -124.386132 
L 586.022496 -66.588789 
L 592.489167 -66.588789 
L 592.489167 -124.386132 
L 592.489167 -124.386132 
L 586.022496 -124.386132 
z
" style="stroke: #fde0c5; stroke-opacity: 0.85"/>
    </defs>
    <g clip-path="url(#p6ae023592d)">
     <use xlink:href="#ma476434e3d" x="0" y="498.24" style="fill: #fde0c5; fill-opacity: 0.85; stroke: #fde0c5; stroke-opacity: 0.85"/>
    </g>
   </g>
   <g id="FillBetweenPolyCollection_55">
    <defs>
     <path id="m1634bdf591" d="M 592.489167 -124.634966 
L 592.489167 -66.588789 
L 598.955839 -66.588789 
L 598.955839 -124.634966 
L 598.955839 -124.634966 
L 592.489167 -124.634966 
z
" style="stroke: #fde0c5; stroke-opacity: 0.85"/>
    </defs>
    <g clip-path="url(#p6ae023592d)">
     <use xlink:href="#m1634bdf591" x="0" y="498.24" style="fill: #fde0c5; fill-opacity: 0.85; stroke: #fde0c5; stroke-opacity: 0.85"/>
    </g>
   </g>
   <g id="FillBetweenPolyCollection_56">
    <defs>
     <path id="mc4045d5a20" d="M 598.955839 -124.8838 
L 598.955839 -66.588789 
L 605.42251 -66.588789 
L 605.42251 -124.8838 
L 605.42251 -124.8838 
L 598.955839 -124.8838 
z
" style="stroke: #fde0c5; stroke-opacity: 0.85"/>
    </defs>
    <g clip-path="url(#p6ae023592d)">
     <use xlink:href="#mc4045d5a20" x="0" y="498.24" style="fill: #fde0c5; fill-opacity: 0.85; stroke: #fde0c5; stroke-opacity: 0.85"/>
    </g>
   </g>
   <g id="FillBetweenPolyCollection_57">
    <defs>
     <path id="m1fbc9fc0e1" d="M 605.42251 -125.132634 
L 605.42251 -66.588789 
L 611.889181 -66.588789 
L 611.889181 -125.132634 
L 611.889181 -125.132634 
L 605.42251 -125.132634 
z
" style="stroke: #fde0c5; stroke-opacity: 0.85"/>
    </defs>
    <g clip-path="url(#p6ae023592d)">
     <use xlink:href="#m1fbc9fc0e1" x="0" y="498.24" style="fill: #fde0c5; fill-opacity: 0.85; stroke: #fde0c5; stroke-opacity: 0.85"/>
    </g>
   </g>
   <g id="FillBetweenPolyCollection_58">
    <defs>
     <path id="m448cf7f9c4" d="M 611.889181 -125.40409 
L 611.889181 -66.588789 
L 618.355852 -66.588789 
L 618.355852 -125.40409 
L 618.355852 -125.40409 
L 611.889181 -125.40409 
z
" style="stroke: #fde0c5; stroke-opacity: 0.85"/>
    </defs>
    <g clip-path="url(#p6ae023592d)">
     <use xlink:href="#m448cf7f9c4" x="0" y="498.24" style="fill: #fde0c5; fill-opacity: 0.85; stroke: #fde0c5; stroke-opacity: 0.85"/>
    </g>
   </g>
   <g id="FillBetweenPolyCollection_59">
    <defs>
     <path id="m303819f396" d="M 618.355852 -125.652924 
L 618.355852 -66.588789 
L 624.822524 -66.588789 
L 624.822524 -125.652924 
L 624.822524 -125.652924 
L 618.355852 -125.652924 
z
" style="stroke: #fde0c5; stroke-opacity: 0.85"/>
    </defs>
    <g clip-path="url(#p6ae023592d)">
     <use xlink:href="#m303819f396" x="0" y="498.24" style="fill: #fde0c5; fill-opacity: 0.85; stroke: #fde0c5; stroke-opacity: 0.85"/>
    </g>
   </g>
   <g id="FillBetweenPolyCollection_60">
    <defs>
     <path id="mb7f6acb745" d="M 624.822524 -125.901758 
L 624.822524 -66.588789 
L 631.289195 -66.588789 
L 631.289195 -125.901758 
L 631.289195 -125.901758 
L 624.822524 -125.901758 
z
" style="stroke: #fde0c5; stroke-opacity: 0.85"/>
    </defs>
    <g clip-path="url(#p6ae023592d)">
     <use xlink:href="#mb7f6acb745" x="0" y="498.24" style="fill: #fde0c5; fill-opacity: 0.85; stroke: #fde0c5; stroke-opacity: 0.85"/>
    </g>
   </g>
   <g id="FillBetweenPolyCollection_61">
    <defs>
     <path id="mef7fdb9e7a" d="M 631.289195 -126.150591 
L 631.289195 -66.588789 
L 637.755866 -66.588789 
L 637.755866 -126.150591 
L 637.755866 -126.150591 
L 631.289195 -126.150591 
z
" style="stroke: #fde0c5; stroke-opacity: 0.85"/>
    </defs>
    <g clip-path="url(#p6ae023592d)">
     <use xlink:href="#mef7fdb9e7a" x="0" y="498.24" style="fill: #fde0c5; fill-opacity: 0.85; stroke: #fde0c5; stroke-opacity: 0.85"/>
    </g>
   </g>
   <g id="FillBetweenPolyCollection_62">
    <defs>
     <path id="md4671ab7b1" d="M 637.755866 -126.399425 
L 637.755866 -66.588789 
L 644.222538 -66.588789 
L 644.222538 -126.399425 
L 644.222538 -126.399425 
L 637.755866 -126.399425 
z
" style="stroke: #fde0c5; stroke-opacity: 0.85"/>
    </defs>
    <g clip-path="url(#p6ae023592d)">
     <use xlink:href="#md4671ab7b1" x="0" y="498.24" style="fill: #fde0c5; fill-opacity: 0.85; stroke: #fde0c5; stroke-opacity: 0.85"/>
    </g>
   </g>
   <g id="FillBetweenPolyCollection_63">
    <defs>
     <path id="mbd66a4a5b4" d="M 644.222538 -126.648259 
L 644.222538 -66.588789 
L 650.689209 -66.588789 
L 650.689209 -126.648259 
L 650.689209 -126.648259 
L 644.222538 -126.648259 
z
" style="stroke: #fde0c5; stroke-opacity: 0.85"/>
    </defs>
    <g clip-path="url(#p6ae023592d)">
     <use xlink:href="#mbd66a4a5b4" x="0" y="498.24" style="fill: #fde0c5; fill-opacity: 0.85; stroke: #fde0c5; stroke-opacity: 0.85"/>
    </g>
   </g>
   <g id="FillBetweenPolyCollection_64">
    <defs>
     <path id="m827350cdb8" d="M 650.689209 -126.897093 
L 650.689209 -66.588789 
L 657.15588 -66.588789 
L 657.15588 -126.897093 
L 657.15588 -126.897093 
L 650.689209 -126.897093 
z
" style="stroke: #fde0c5; stroke-opacity: 0.85"/>
    </defs>
    <g clip-path="url(#p6ae023592d)">
     <use xlink:href="#m827350cdb8" x="0" y="498.24" style="fill: #fde0c5; fill-opacity: 0.85; stroke: #fde0c5; stroke-opacity: 0.85"/>
    </g>
   </g>
   <g id="FillBetweenPolyCollection_65">
    <defs>
     <path id="mfa0f98f248" d="M 657.15588 -127.145927 
L 657.15588 -66.588789 
L 663.622552 -66.588789 
L 663.622552 -127.145927 
L 663.622552 -127.145927 
L 657.15588 -127.145927 
z
" style="stroke: #fde0c5; stroke-opacity: 0.85"/>
    </defs>
    <g clip-path="url(#p6ae023592d)">
     <use xlink:href="#mfa0f98f248" x="0" y="498.24" style="fill: #fde0c5; fill-opacity: 0.85; stroke: #fde0c5; stroke-opacity: 0.85"/>
    </g>
   </g>
   <g id="FillBetweenPolyCollection_66">
    <defs>
     <path id="m09d3cda9f0" d="M 663.622552 -127.394761 
L 663.622552 -66.588789 
L 670.089223 -66.588789 
L 670.089223 -127.394761 
L 670.089223 -127.394761 
L 663.622552 -127.394761 
z
" style="stroke: #fde0c5; stroke-opacity: 0.85"/>
    </defs>
    <g clip-path="url(#p6ae023592d)">
     <use xlink:href="#m09d3cda9f0" x="0" y="498.24" style="fill: #fde0c5; fill-opacity: 0.85; stroke: #fde0c5; stroke-opacity: 0.85"/>
    </g>
   </g>
   <g id="FillBetweenPolyCollection_67">
    <defs>
     <path id="mdd0752f5f0" d="M 670.089223 -127.666217 
L 670.089223 -66.588789 
L 676.555894 -66.588789 
L 676.555894 -127.666217 
L 676.555894 -127.666217 
L 670.089223 -127.666217 
z
" style="stroke: #fde0c5; stroke-opacity: 0.85"/>
    </defs>
    <g clip-path="url(#p6ae023592d)">
     <use xlink:href="#mdd0752f5f0" x="0" y="498.24" style="fill: #fde0c5; fill-opacity: 0.85; stroke: #fde0c5; stroke-opacity: 0.85"/>
    </g>
   </g>
   <g id="FillBetweenPolyCollection_68">
    <defs>
     <path id="mda1eb8f73c" d="M 676.555894 -127.915051 
L 676.555894 -66.588789 
L 683.022565 -66.588789 
L 683.022565 -127.915051 
L 683.022565 -127.915051 
L 676.555894 -127.915051 
z
" style="stroke: #fde0c5; stroke-opacity: 0.85"/>
    </defs>
    <g clip-path="url(#p6ae023592d)">
     <use xlink:href="#mda1eb8f73c" x="0" y="498.24" style="fill: #fde0c5; fill-opacity: 0.85; stroke: #fde0c5; stroke-opacity: 0.85"/>
    </g>
   </g>
   <g id="FillBetweenPolyCollection_69">
    <defs>
     <path id="m136b12ec1e" d="M 683.022565 -128.163884 
L 683.022565 -66.588789 
L 689.489237 -66.588789 
L 689.489237 -128.163884 
L 689.489237 -128.163884 
L 683.022565 -128.163884 
z
" style="stroke: #fde0c5; stroke-opacity: 0.85"/>
    </defs>
    <g clip-path="url(#p6ae023592d)">
     <use xlink:href="#m136b12ec1e" x="0" y="498.24" style="fill: #fde0c5; fill-opacity: 0.85; stroke: #fde0c5; stroke-opacity: 0.85"/>
    </g>
   </g>
   <g id="FillBetweenPolyCollection_70">
    <defs>
     <path id="mbcba75e8ac" d="M 689.489237 -128.412718 
L 689.489237 -66.588789 
L 695.955908 -66.588789 
L 695.955908 -128.412718 
L 695.955908 -128.412718 
L 689.489237 -128.412718 
z
" style="stroke: #fde0c5; stroke-opacity: 0.85"/>
    </defs>
    <g clip-path="url(#p6ae023592d)">
     <use xlink:href="#mbcba75e8ac" x="0" y="498.24" style="fill: #fde0c5; fill-opacity: 0.85; stroke: #fde0c5; stroke-opacity: 0.85"/>
    </g>
   </g>
   <g id="FillBetweenPolyCollection_71">
    <defs>
     <path id="m73d1ae59e0" d="M 695.955908 -128.661552 
L 695.955908 -66.588789 
L 702.422579 -66.588789 
L 702.422579 -128.661552 
L 702.422579 -128.661552 
L 695.955908 -128.661552 
z
" style="stroke: #fde0c5; stroke-opacity: 0.85"/>
    </defs>
    <g clip-path="url(#p6ae023592d)">
     <use xlink:href="#m73d1ae59e0" x="0" y="498.24" style="fill: #fde0c5; fill-opacity: 0.85; stroke: #fde0c5; stroke-opacity: 0.85"/>
    </g>
   </g>
   <g id="FillBetweenPolyCollection_72">
    <defs>
     <path id="m70d15f42ca" d="M 702.422579 -128.910386 
L 702.422579 -66.588789 
L 708.889251 -66.588789 
L 708.889251 -128.910386 
L 708.889251 -128.910386 
L 702.422579 -128.910386 
z
" style="stroke: #fde0c5; stroke-opacity: 0.85"/>
    </defs>
    <g clip-path="url(#p6ae023592d)">
     <use xlink:href="#m70d15f42ca" x="0" y="498.24" style="fill: #fde0c5; fill-opacity: 0.85; stroke: #fde0c5; stroke-opacity: 0.85"/>
    </g>
   </g>
   <g id="FillBetweenPolyCollection_73">
    <defs>
     <path id="m53d6fd8af9" d="M 708.889251 -129.15922 
L 708.889251 -66.588789 
L 715.355922 -66.588789 
L 715.355922 -129.15922 
L 715.355922 -129.15922 
L 708.889251 -129.15922 
z
" style="stroke: #fde0c5; stroke-opacity: 0.85"/>
    </defs>
    <g clip-path="url(#p6ae023592d)">
     <use xlink:href="#m53d6fd8af9" x="0" y="498.24" style="fill: #fde0c5; fill-opacity: 0.85; stroke: #fde0c5; stroke-opacity: 0.85"/>
    </g>
   </g>
   <g id="FillBetweenPolyCollection_74">
    <defs>
     <path id="m26fa3f2bc5" d="M 715.355922 -129.408054 
L 715.355922 -66.588789 
L 721.822593 -66.588789 
L 721.822593 -129.408054 
L 721.822593 -129.408054 
L 715.355922 -129.408054 
z
" style="stroke: #fde0c5; stroke-opacity: 0.85"/>
    </defs>
    <g clip-path="url(#p6ae023592d)">
     <use xlink:href="#m26fa3f2bc5" x="0" y="498.24" style="fill: #fde0c5; fill-opacity: 0.85; stroke: #fde0c5; stroke-opacity: 0.85"/>
    </g>
   </g>
   <g id="FillBetweenPolyCollection_75">
    <defs>
     <path id="m5845152f54" d="M 721.822593 -129.656888 
L 721.822593 -66.588789 
L 741.222607 -66.588789 
L 741.222607 -129.656888 
L 741.222607 -129.656888 
L 721.822593 -129.656888 
z
" style="stroke: #fde0c5; stroke-opacity: 0.85"/>
    </defs>
    <g clip-path="url(#p6ae023592d)">
     <use xlink:href="#m5845152f54" x="0" y="498.24" style="fill: #fde0c5; fill-opacity: 0.85; stroke: #fde0c5; stroke-opacity: 0.85"/>
    </g>
   </g>
   <g id="FillBetweenPolyCollection_76">
    <defs>
     <path id="m432ed1071e" d="M 741.222607 -145.763232 
L 741.222607 -66.588789 
L 747.689278 -66.588789 
L 747.689278 -145.763232 
L 747.689278 -145.763232 
L 741.222607 -145.763232 
z
" style="stroke: #fde0c5; stroke-opacity: 0.85"/>
    </defs>
    <g clip-path="url(#p6ae023592d)">
     <use xlink:href="#m432ed1071e" x="0" y="498.24" style="fill: #fde0c5; fill-opacity: 0.85; stroke: #fde0c5; stroke-opacity: 0.85"/>
    </g>
   </g>
   <g id="FillBetweenPolyCollection_77">
    <defs>
     <path id="m14759a9135" d="M 747.689278 -179.695136 
L 747.689278 -66.588789 
L 754.15595 -66.588789 
L 754.15595 -179.695136 
L 754.15595 -179.695136 
L 747.689278 -179.695136 
z
" style="stroke: #fde0c5; stroke-opacity: 0.85"/>
    </defs>
    <g clip-path="url(#p6ae023592d)">
     <use xlink:href="#m14759a9135" x="0" y="498.24" style="fill: #fde0c5; fill-opacity: 0.85; stroke: #fde0c5; stroke-opacity: 0.85"/>
    </g>
   </g>
   <g id="FillBetweenPolyCollection_78">
    <defs>
     <path id="m908e82ecf7" d="M 754.15595 -192.272562 
L 754.15595 -66.588789 
L 760.622621 -66.588789 
L 760.622621 -192.272562 
L 760.622621 -192.272562 
L 754.15595 -192.272562 
z
" style="stroke: #fde0c5; stroke-opacity: 0.85"/>
    </defs>
    <g clip-path="url(#p6ae023592d)">
     <use xlink:href="#m908e82ecf7" x="0" y="498.24" style="fill: #fde0c5; fill-opacity: 0.85; stroke: #fde0c5; stroke-opacity: 0.85"/>
    </g>
   </g>
   <g id="FillBetweenPolyCollection_79">
    <defs>
     <path id="md23b8e5a8a" d="M 760.622621 -242.537023 
L 760.622621 -66.588789 
L 773.555964 -66.588789 
L 773.555964 -242.537023 
L 773.555964 -242.537023 
L 760.622621 -242.537023 
z
" style="stroke: #fde0c5; stroke-opacity: 0.85"/>
    </defs>
    <g clip-path="url(#p6ae023592d)">
     <use xlink:href="#md23b8e5a8a" x="0" y="498.24" style="fill: #fde0c5; fill-opacity: 0.85; stroke: #fde0c5; stroke-opacity: 0.85"/>
    </g>
   </g>
   <g id="FillBetweenPolyCollection_80">
    <defs>
     <path id="m987e364ec4" d="M 773.555964 -267.669254 
L 773.555964 -66.588789 
L 786.489306 -66.588789 
L 786.489306 -267.669254 
L 786.489306 -267.669254 
L 773.555964 -267.669254 
z
" style="stroke: #fde0c5; stroke-opacity: 0.85"/>
    </defs>
    <g clip-path="url(#p6ae023592d)">
     <use xlink:href="#m987e364ec4" x="0" y="498.24" style="fill: #fde0c5; fill-opacity: 0.85; stroke: #fde0c5; stroke-opacity: 0.85"/>
    </g>
   </g>
   <g id="FillBetweenPolyCollection_81">
    <defs>
     <path id="m9ec5edf5b6" d="M 786.489306 -292.801484 
L 786.489306 -66.588789 
L 792.955977 -66.588789 
L 792.955977 -292.801484 
L 792.955977 -292.801484 
L 786.489306 -292.801484 
z
" style="stroke: #fde0c5; stroke-opacity: 0.85"/>
    </defs>
    <g clip-path="url(#p6ae023592d)">
     <use xlink:href="#m9ec5edf5b6" x="0" y="498.24" style="fill: #fde0c5; fill-opacity: 0.85; stroke: #fde0c5; stroke-opacity: 0.85"/>
    </g>
   </g>
   <g id="FillBetweenPolyCollection_82">
    <defs>
     <path id="me91bf56f79" d="M 792.955977 -317.956336 
L 792.955977 -66.588789 
L 805.88932 -66.588789 
L 805.88932 -317.956336 
L 805.88932 -317.956336 
L 792.955977 -317.956336 
z
" style="stroke: #fde0c5; stroke-opacity: 0.85"/>
    </defs>
    <g clip-path="url(#p6ae023592d)">
     <use xlink:href="#me91bf56f79" x="0" y="498.24" style="fill: #fde0c5; fill-opacity: 0.85; stroke: #fde0c5; stroke-opacity: 0.85"/>
    </g>
   </g>
   <g id="FillBetweenPolyCollection_83">
    <defs>
     <path id="m2940f514f7" d="M 805.88932 -343.088566 
L 805.88932 -66.588789 
L 818.822663 -66.588789 
L 818.822663 -343.088566 
L 818.822663 -343.088566 
L 805.88932 -343.088566 
z
" style="stroke: #fde0c5; stroke-opacity: 0.85"/>
    </defs>
    <g clip-path="url(#p6ae023592d)">
     <use xlink:href="#m2940f514f7" x="0" y="498.24" style="fill: #fde0c5; fill-opacity: 0.85; stroke: #fde0c5; stroke-opacity: 0.85"/>
    </g>
   </g>
   <g id="FillBetweenPolyCollection_84">
    <defs>
     <path id="m5d4bfd2ea0" d="M 818.822663 -355.643371 
L 818.822663 -66.588789 
L 825.289334 -66.588789 
L 825.289334 -355.643371 
L 825.289334 -355.643371 
L 818.822663 -355.643371 
z
" style="stroke: #fde0c5; stroke-opacity: 0.85"/>
    </defs>
    <g clip-path="url(#p6ae023592d)">
     <use xlink:href="#m5d4bfd2ea0" x="0" y="498.24" style="fill: #fde0c5; fill-opacity: 0.85; stroke: #fde0c5; stroke-opacity: 0.85"/>
    </g>
   </g>
   <g id="FillBetweenPolyCollection_85">
    <defs>
     <path id="m6f8bf78080" d="M 825.289334 -368.220797 
L 825.289334 -66.588789 
L 831.756005 -66.588789 
L 831.756005 -368.220797 
L 831.756005 -368.220797 
L 825.289334 -368.220797 
z
" style="stroke: #fde0c5; stroke-opacity: 0.85"/>
    </defs>
    <g clip-path="url(#p6ae023592d)">
     <use xlink:href="#m6f8bf78080" x="0" y="498.24" style="fill: #fde0c5; fill-opacity: 0.85; stroke: #fde0c5; stroke-opacity: 0.85"/>
    </g>
   </g>
   <g id="FillBetweenPolyCollection_86">
    <defs>
     <path id="ma51b768709" d="M 831.756005 -405.907832 
L 831.756005 -66.588789 
L 851.156019 -66.588789 
L 851.156019 -405.907832 
L 851.156019 -405.907832 
L 831.756005 -405.907832 
z
" style="stroke: #fde0c5; stroke-opacity: 0.85"/>
    </defs>
    <g clip-path="url(#p6ae023592d)">
     <use xlink:href="#ma51b768709" x="0" y="498.24" style="fill: #fde0c5; fill-opacity: 0.85; stroke: #fde0c5; stroke-opacity: 0.85"/>
    </g>
   </g>
   <g id="FillBetweenPolyCollection_87">
    <defs>
     <path id="mce7ca41fa1" d="M 851.156019 -418.485258 
L 851.156019 -66.588789 
L 870.556033 -66.588789 
L 870.556033 -418.485258 
L 870.556033 -418.485258 
L 851.156019 -418.485258 
z
" style="stroke: #fde0c5; stroke-opacity: 0.85"/>
    </defs>
    <g clip-path="url(#p6ae023592d)">
     <use xlink:href="#mce7ca41fa1" x="0" y="498.24" style="fill: #fde0c5; fill-opacity: 0.85; stroke: #fde0c5; stroke-opacity: 0.85"/>
    </g>
   </g>
   <g id="matplotlib.axis_1">
    <g id="xtick_1">
     <g id="line2d_1">
      <path d="M 101.022149 450.502646 
L 101.022149 35.771077 
" clip-path="url(#p6ae023592d)" style="fill: none; stroke: #e6e6e6; stroke-opacity: 0.9; stroke-linecap: square"/>
     </g>
     <g id="line2d_2">
      <defs>
       <path id="m42e460ee83" d="M 0 0 
L 0 3.5 
" style="stroke: #333333; stroke-width: 0.8"/>
      </defs>
      <g>
       <use xlink:href="#m42e460ee83" x="101.022149" y="450.502646" style="fill: #333333; stroke: #333333; stroke-width: 0.8"/>
      </g>
     </g>
     <g id="text_1">
      <!-- 0 -->
      <g style="fill: #333333" transform="translate(97.840899 465.101084) scale(0.1 -0.1)">
       <defs>
        <path id="DejaVuSans-30" d="M 2034 4250 
Q 1547 4250 1301 3770 
Q 1056 3291 1056 2328 
Q 1056 1369 1301 889 
Q 1547 409 2034 409 
Q 2525 409 2770 889 
Q 3016 1369 3016 2328 
Q 3016 3291 2770 3770 
Q 2525 4250 2034 4250 
z
M 2034 4750 
Q 2819 4750 3233 4129 
Q 3647 3509 3647 2328 
Q 3647 1150 3233 529 
Q 2819 -91 2034 -91 
Q 1250 -91 836 529 
Q 422 1150 422 2328 
Q 422 3509 836 4129 
Q 1250 4750 2034 4750 
z
" transform="scale(0.015625)"/>
       </defs>
       <use xlink:href="#DejaVuSans-30"/>
      </g>
     </g>
    </g>
    <g id="xtick_2">
     <g id="line2d_3">
      <path d="M 230.355575 450.502646 
L 230.355575 35.771077 
" clip-path="url(#p6ae023592d)" style="fill: none; stroke: #e6e6e6; stroke-opacity: 0.9; stroke-linecap: square"/>
     </g>
     <g id="line2d_4">
      <g>
       <use xlink:href="#m42e460ee83" x="230.355575" y="450.502646" style="fill: #333333; stroke: #333333; stroke-width: 0.8"/>
      </g>
     </g>
     <g id="text_2">
      <!-- 20 -->
      <g style="fill: #333333" transform="translate(223.993075 465.101084) scale(0.1 -0.1)">
       <defs>
        <path id="DejaVuSans-32" d="M 1228 531 
L 3431 531 
L 3431 0 
L 469 0 
L 469 531 
Q 828 903 1448 1529 
Q 2069 2156 2228 2338 
Q 2531 2678 2651 2914 
Q 2772 3150 2772 3378 
Q 2772 3750 2511 3984 
Q 2250 4219 1831 4219 
Q 1534 4219 1204 4116 
Q 875 4013 500 3803 
L 500 4441 
Q 881 4594 1212 4672 
Q 1544 4750 1819 4750 
Q 2544 4750 2975 4387 
Q 3406 4025 3406 3419 
Q 3406 3131 3298 2873 
Q 3191 2616 2906 2266 
Q 2828 2175 2409 1742 
Q 1991 1309 1228 531 
z
" transform="scale(0.015625)"/>
       </defs>
       <use xlink:href="#DejaVuSans-32"/>
       <use xlink:href="#DejaVuSans-30" transform="translate(63.623047 0)"/>
      </g>
     </g>
    </g>
    <g id="xtick_3">
     <g id="line2d_5">
      <path d="M 359.689001 450.502646 
L 359.689001 35.771077 
" clip-path="url(#p6ae023592d)" style="fill: none; stroke: #e6e6e6; stroke-opacity: 0.9; stroke-linecap: square"/>
     </g>
     <g id="line2d_6">
      <g>
       <use xlink:href="#m42e460ee83" x="359.689001" y="450.502646" style="fill: #333333; stroke: #333333; stroke-width: 0.8"/>
      </g>
     </g>
     <g id="text_3">
      <!-- 40 -->
      <g style="fill: #333333" transform="translate(353.326501 465.101084) scale(0.1 -0.1)">
       <defs>
        <path id="DejaVuSans-34" d="M 2419 4116 
L 825 1625 
L 2419 1625 
L 2419 4116 
z
M 2253 4666 
L 3047 4666 
L 3047 1625 
L 3713 1625 
L 3713 1100 
L 3047 1100 
L 3047 0 
L 2419 0 
L 2419 1100 
L 313 1100 
L 313 1709 
L 2253 4666 
z
" transform="scale(0.015625)"/>
       </defs>
       <use xlink:href="#DejaVuSans-34"/>
       <use xlink:href="#DejaVuSans-30" transform="translate(63.623047 0)"/>
      </g>
     </g>
    </g>
    <g id="xtick_4">
     <g id="line2d_7">
      <path d="M 489.022427 450.502646 
L 489.022427 35.771077 
" clip-path="url(#p6ae023592d)" style="fill: none; stroke: #e6e6e6; stroke-opacity: 0.9; stroke-linecap: square"/>
     </g>
     <g id="line2d_8">
      <g>
       <use xlink:href="#m42e460ee83" x="489.022427" y="450.502646" style="fill: #333333; stroke: #333333; stroke-width: 0.8"/>
      </g>
     </g>
     <g id="text_4">
      <!-- 60 -->
      <g style="fill: #333333" transform="translate(482.659927 465.101084) scale(0.1 -0.1)">
       <defs>
        <path id="DejaVuSans-36" d="M 2113 2584 
Q 1688 2584 1439 2293 
Q 1191 2003 1191 1497 
Q 1191 994 1439 701 
Q 1688 409 2113 409 
Q 2538 409 2786 701 
Q 3034 994 3034 1497 
Q 3034 2003 2786 2293 
Q 2538 2584 2113 2584 
z
M 3366 4563 
L 3366 3988 
Q 3128 4100 2886 4159 
Q 2644 4219 2406 4219 
Q 1781 4219 1451 3797 
Q 1122 3375 1075 2522 
Q 1259 2794 1537 2939 
Q 1816 3084 2150 3084 
Q 2853 3084 3261 2657 
Q 3669 2231 3669 1497 
Q 3669 778 3244 343 
Q 2819 -91 2113 -91 
Q 1303 -91 875 529 
Q 447 1150 447 2328 
Q 447 3434 972 4092 
Q 1497 4750 2381 4750 
Q 2619 4750 2861 4703 
Q 3103 4656 3366 4563 
z
" transform="scale(0.015625)"/>
       </defs>
       <use xlink:href="#DejaVuSans-36"/>
       <use xlink:href="#DejaVuSans-30" transform="translate(63.623047 0)"/>
      </g>
     </g>
    </g>
    <g id="xtick_5">
     <g id="line2d_9">
      <path d="M 618.355852 450.502646 
L 618.355852 35.771077 
" clip-path="url(#p6ae023592d)" style="fill: none; stroke: #e6e6e6; stroke-opacity: 0.9; stroke-linecap: square"/>
     </g>
     <g id="line2d_10">
      <g>
       <use xlink:href="#m42e460ee83" x="618.355852" y="450.502646" style="fill: #333333; stroke: #333333; stroke-width: 0.8"/>
      </g>
     </g>
     <g id="text_5">
      <!-- 80 -->
      <g style="fill: #333333" transform="translate(611.993352 465.101084) scale(0.1 -0.1)">
       <defs>
        <path id="DejaVuSans-38" d="M 2034 2216 
Q 1584 2216 1326 1975 
Q 1069 1734 1069 1313 
Q 1069 891 1326 650 
Q 1584 409 2034 409 
Q 2484 409 2743 651 
Q 3003 894 3003 1313 
Q 3003 1734 2745 1975 
Q 2488 2216 2034 2216 
z
M 1403 2484 
Q 997 2584 770 2862 
Q 544 3141 544 3541 
Q 544 4100 942 4425 
Q 1341 4750 2034 4750 
Q 2731 4750 3128 4425 
Q 3525 4100 3525 3541 
Q 3525 3141 3298 2862 
Q 3072 2584 2669 2484 
Q 3125 2378 3379 2068 
Q 3634 1759 3634 1313 
Q 3634 634 3220 271 
Q 2806 -91 2034 -91 
Q 1263 -91 848 271 
Q 434 634 434 1313 
Q 434 1759 690 2068 
Q 947 2378 1403 2484 
z
M 1172 3481 
Q 1172 3119 1398 2916 
Q 1625 2713 2034 2713 
Q 2441 2713 2670 2916 
Q 2900 3119 2900 3481 
Q 2900 3844 2670 4047 
Q 2441 4250 2034 4250 
Q 1625 4250 1398 4047 
Q 1172 3844 1172 3481 
z
" transform="scale(0.015625)"/>
       </defs>
       <use xlink:href="#DejaVuSans-38"/>
       <use xlink:href="#DejaVuSans-30" transform="translate(63.623047 0)"/>
      </g>
     </g>
    </g>
    <g id="xtick_6">
     <g id="line2d_11">
      <path d="M 747.689278 450.502646 
L 747.689278 35.771077 
" clip-path="url(#p6ae023592d)" style="fill: none; stroke: #e6e6e6; stroke-opacity: 0.9; stroke-linecap: square"/>
     </g>
     <g id="line2d_12">
      <g>
       <use xlink:href="#m42e460ee83" x="747.689278" y="450.502646" style="fill: #333333; stroke: #333333; stroke-width: 0.8"/>
      </g>
     </g>
     <g id="text_6">
      <!-- 100 -->
      <g style="fill: #333333" transform="translate(738.145528 465.101084) scale(0.1 -0.1)">
       <defs>
        <path id="DejaVuSans-31" d="M 794 531 
L 1825 531 
L 1825 4091 
L 703 3866 
L 703 4441 
L 1819 4666 
L 2450 4666 
L 2450 531 
L 3481 531 
L 3481 0 
L 794 0 
L 794 531 
z
" transform="scale(0.015625)"/>
       </defs>
       <use xlink:href="#DejaVuSans-31"/>
       <use xlink:href="#DejaVuSans-30" transform="translate(63.623047 0)"/>
       <use xlink:href="#DejaVuSans-30" transform="translate(127.246094 0)"/>
      </g>
     </g>
    </g>
    <g id="xtick_7">
     <g id="line2d_13">
      <path d="M 877.022704 450.502646 
L 877.022704 35.771077 
" clip-path="url(#p6ae023592d)" style="fill: none; stroke: #e6e6e6; stroke-opacity: 0.9; stroke-linecap: square"/>
     </g>
     <g id="line2d_14">
      <g>
       <use xlink:href="#m42e460ee83" x="877.022704" y="450.502646" style="fill: #333333; stroke: #333333; stroke-width: 0.8"/>
      </g>
     </g>
     <g id="text_7">
      <!-- 120 -->
      <g style="fill: #333333" transform="translate(867.478954 465.101084) scale(0.1 -0.1)">
       <use xlink:href="#DejaVuSans-31"/>
       <use xlink:href="#DejaVuSans-32" transform="translate(63.623047 0)"/>
       <use xlink:href="#DejaVuSans-30" transform="translate(127.246094 0)"/>
      </g>
     </g>
    </g>
    <g id="text_8">
     <!-- Cumulative Offered Volume (MW) -->
     <g transform="translate(385.244091 480.298896) scale(0.12 -0.12)">
      <defs>
       <path id="DejaVuSans-43" d="M 4122 4306 
L 4122 3641 
Q 3803 3938 3442 4084 
Q 3081 4231 2675 4231 
Q 1875 4231 1450 3742 
Q 1025 3253 1025 2328 
Q 1025 1406 1450 917 
Q 1875 428 2675 428 
Q 3081 428 3442 575 
Q 3803 722 4122 1019 
L 4122 359 
Q 3791 134 3420 21 
Q 3050 -91 2638 -91 
Q 1578 -91 968 557 
Q 359 1206 359 2328 
Q 359 3453 968 4101 
Q 1578 4750 2638 4750 
Q 3056 4750 3426 4639 
Q 3797 4528 4122 4306 
z
" transform="scale(0.015625)"/>
       <path id="DejaVuSans-75" d="M 544 1381 
L 544 3500 
L 1119 3500 
L 1119 1403 
Q 1119 906 1312 657 
Q 1506 409 1894 409 
Q 2359 409 2629 706 
Q 2900 1003 2900 1516 
L 2900 3500 
L 3475 3500 
L 3475 0 
L 2900 0 
L 2900 538 
Q 2691 219 2414 64 
Q 2138 -91 1772 -91 
Q 1169 -91 856 284 
Q 544 659 544 1381 
z
M 1991 3584 
L 1991 3584 
z
" transform="scale(0.015625)"/>
       <path id="DejaVuSans-6d" d="M 3328 2828 
Q 3544 3216 3844 3400 
Q 4144 3584 4550 3584 
Q 5097 3584 5394 3201 
Q 5691 2819 5691 2113 
L 5691 0 
L 5113 0 
L 5113 2094 
Q 5113 2597 4934 2840 
Q 4756 3084 4391 3084 
Q 3944 3084 3684 2787 
Q 3425 2491 3425 1978 
L 3425 0 
L 2847 0 
L 2847 2094 
Q 2847 2600 2669 2842 
Q 2491 3084 2119 3084 
Q 1678 3084 1418 2786 
Q 1159 2488 1159 1978 
L 1159 0 
L 581 0 
L 581 3500 
L 1159 3500 
L 1159 2956 
Q 1356 3278 1631 3431 
Q 1906 3584 2284 3584 
Q 2666 3584 2933 3390 
Q 3200 3197 3328 2828 
z
" transform="scale(0.015625)"/>
       <path id="DejaVuSans-6c" d="M 603 4863 
L 1178 4863 
L 1178 0 
L 603 0 
L 603 4863 
z
" transform="scale(0.015625)"/>
       <path id="DejaVuSans-61" d="M 2194 1759 
Q 1497 1759 1228 1600 
Q 959 1441 959 1056 
Q 959 750 1161 570 
Q 1363 391 1709 391 
Q 2188 391 2477 730 
Q 2766 1069 2766 1631 
L 2766 1759 
L 2194 1759 
z
M 3341 1997 
L 3341 0 
L 2766 0 
L 2766 531 
Q 2569 213 2275 61 
Q 1981 -91 1556 -91 
Q 1019 -91 701 211 
Q 384 513 384 1019 
Q 384 1609 779 1909 
Q 1175 2209 1959 2209 
L 2766 2209 
L 2766 2266 
Q 2766 2663 2505 2880 
Q 2244 3097 1772 3097 
Q 1472 3097 1187 3025 
Q 903 2953 641 2809 
L 641 3341 
Q 956 3463 1253 3523 
Q 1550 3584 1831 3584 
Q 2591 3584 2966 3190 
Q 3341 2797 3341 1997 
z
" transform="scale(0.015625)"/>
       <path id="DejaVuSans-74" d="M 1172 4494 
L 1172 3500 
L 2356 3500 
L 2356 3053 
L 1172 3053 
L 1172 1153 
Q 1172 725 1289 603 
Q 1406 481 1766 481 
L 2356 481 
L 2356 0 
L 1766 0 
Q 1100 0 847 248 
Q 594 497 594 1153 
L 594 3053 
L 172 3053 
L 172 3500 
L 594 3500 
L 594 4494 
L 1172 4494 
z
" transform="scale(0.015625)"/>
       <path id="DejaVuSans-69" d="M 603 3500 
L 1178 3500 
L 1178 0 
L 603 0 
L 603 3500 
z
M 603 4863 
L 1178 4863 
L 1178 4134 
L 603 4134 
L 603 4863 
z
" transform="scale(0.015625)"/>
       <path id="DejaVuSans-76" d="M 191 3500 
L 800 3500 
L 1894 563 
L 2988 3500 
L 3597 3500 
L 2284 0 
L 1503 0 
L 191 3500 
z
" transform="scale(0.015625)"/>
       <path id="DejaVuSans-65" d="M 3597 1894 
L 3597 1613 
L 953 1613 
Q 991 1019 1311 708 
Q 1631 397 2203 397 
Q 2534 397 2845 478 
Q 3156 559 3463 722 
L 3463 178 
Q 3153 47 2828 -22 
Q 2503 -91 2169 -91 
Q 1331 -91 842 396 
Q 353 884 353 1716 
Q 353 2575 817 3079 
Q 1281 3584 2069 3584 
Q 2775 3584 3186 3129 
Q 3597 2675 3597 1894 
z
M 3022 2063 
Q 3016 2534 2758 2815 
Q 2500 3097 2075 3097 
Q 1594 3097 1305 2825 
Q 1016 2553 972 2059 
L 3022 2063 
z
" transform="scale(0.015625)"/>
       <path id="DejaVuSans-20" transform="scale(0.015625)"/>
       <path id="DejaVuSans-4f" d="M 2522 4238 
Q 1834 4238 1429 3725 
Q 1025 3213 1025 2328 
Q 1025 1447 1429 934 
Q 1834 422 2522 422 
Q 3209 422 3611 934 
Q 4013 1447 4013 2328 
Q 4013 3213 3611 3725 
Q 3209 4238 2522 4238 
z
M 2522 4750 
Q 3503 4750 4090 4092 
Q 4678 3434 4678 2328 
Q 4678 1225 4090 567 
Q 3503 -91 2522 -91 
Q 1538 -91 948 565 
Q 359 1222 359 2328 
Q 359 3434 948 4092 
Q 1538 4750 2522 4750 
z
" transform="scale(0.015625)"/>
       <path id="DejaVuSans-66" d="M 2375 4863 
L 2375 4384 
L 1825 4384 
Q 1516 4384 1395 4259 
Q 1275 4134 1275 3809 
L 1275 3500 
L 2222 3500 
L 2222 3053 
L 1275 3053 
L 1275 0 
L 697 0 
L 697 3053 
L 147 3053 
L 147 3500 
L 697 3500 
L 697 3744 
Q 697 4328 969 4595 
Q 1241 4863 1831 4863 
L 2375 4863 
z
" transform="scale(0.015625)"/>
       <path id="DejaVuSans-72" d="M 2631 2963 
Q 2534 3019 2420 3045 
Q 2306 3072 2169 3072 
Q 1681 3072 1420 2755 
Q 1159 2438 1159 1844 
L 1159 0 
L 581 0 
L 581 3500 
L 1159 3500 
L 1159 2956 
Q 1341 3275 1631 3429 
Q 1922 3584 2338 3584 
Q 2397 3584 2469 3576 
Q 2541 3569 2628 3553 
L 2631 2963 
z
" transform="scale(0.015625)"/>
       <path id="DejaVuSans-64" d="M 2906 2969 
L 2906 4863 
L 3481 4863 
L 3481 0 
L 2906 0 
L 2906 525 
Q 2725 213 2448 61 
Q 2172 -91 1784 -91 
Q 1150 -91 751 415 
Q 353 922 353 1747 
Q 353 2572 751 3078 
Q 1150 3584 1784 3584 
Q 2172 3584 2448 3432 
Q 2725 3281 2906 2969 
z
M 947 1747 
Q 947 1113 1208 752 
Q 1469 391 1925 391 
Q 2381 391 2643 752 
Q 2906 1113 2906 1747 
Q 2906 2381 2643 2742 
Q 2381 3103 1925 3103 
Q 1469 3103 1208 2742 
Q 947 2381 947 1747 
z
" transform="scale(0.015625)"/>
       <path id="DejaVuSans-56" d="M 1831 0 
L 50 4666 
L 709 4666 
L 2188 738 
L 3669 4666 
L 4325 4666 
L 2547 0 
L 1831 0 
z
" transform="scale(0.015625)"/>
       <path id="DejaVuSans-6f" d="M 1959 3097 
Q 1497 3097 1228 2736 
Q 959 2375 959 1747 
Q 959 1119 1226 758 
Q 1494 397 1959 397 
Q 2419 397 2687 759 
Q 2956 1122 2956 1747 
Q 2956 2369 2687 2733 
Q 2419 3097 1959 3097 
z
M 1959 3584 
Q 2709 3584 3137 3096 
Q 3566 2609 3566 1747 
Q 3566 888 3137 398 
Q 2709 -91 1959 -91 
Q 1206 -91 779 398 
Q 353 888 353 1747 
Q 353 2609 779 3096 
Q 1206 3584 1959 3584 
z
" transform="scale(0.015625)"/>
       <path id="DejaVuSans-28" d="M 1984 4856 
Q 1566 4138 1362 3434 
Q 1159 2731 1159 2009 
Q 1159 1288 1364 580 
Q 1569 -128 1984 -844 
L 1484 -844 
Q 1016 -109 783 600 
Q 550 1309 550 2009 
Q 550 2706 781 3412 
Q 1013 4119 1484 4856 
L 1984 4856 
z
" transform="scale(0.015625)"/>
       <path id="DejaVuSans-4d" d="M 628 4666 
L 1569 4666 
L 2759 1491 
L 3956 4666 
L 4897 4666 
L 4897 0 
L 4281 0 
L 4281 4097 
L 3078 897 
L 2444 897 
L 1241 4097 
L 1241 0 
L 628 0 
L 628 4666 
z
" transform="scale(0.015625)"/>
       <path id="DejaVuSans-57" d="M 213 4666 
L 850 4666 
L 1831 722 
L 2809 4666 
L 3519 4666 
L 4500 722 
L 5478 4666 
L 6119 4666 
L 4947 0 
L 4153 0 
L 3169 4050 
L 2175 0 
L 1381 0 
L 213 4666 
z
" transform="scale(0.015625)"/>
       <path id="DejaVuSans-29" d="M 513 4856 
L 1013 4856 
Q 1481 4119 1714 3412 
Q 1947 2706 1947 2009 
Q 1947 1309 1714 600 
Q 1481 -109 1013 -844 
L 513 -844 
Q 928 -128 1133 580 
Q 1338 1288 1338 2009 
Q 1338 2731 1133 3434 
Q 928 4138 513 4856 
z
" transform="scale(0.015625)"/>
      </defs>
      <use xlink:href="#DejaVuSans-43"/>
      <use xlink:href="#DejaVuSans-75" transform="translate(69.824219 0)"/>
      <use xlink:href="#DejaVuSans-6d" transform="translate(133.203125 0)"/>
      <use xlink:href="#DejaVuSans-75" transform="translate(230.615234 0)"/>
      <use xlink:href="#DejaVuSans-6c" transform="translate(293.994141 0)"/>
      <use xlink:href="#DejaVuSans-61" transform="translate(321.777344 0)"/>
      <use xlink:href="#DejaVuSans-74" transform="translate(383.056641 0)"/>
      <use xlink:href="#DejaVuSans-69" transform="translate(422.265625 0)"/>
      <use xlink:href="#DejaVuSans-76" transform="translate(450.048828 0)"/>
      <use xlink:href="#DejaVuSans-65" transform="translate(509.228516 0)"/>
      <use xlink:href="#DejaVuSans-20" transform="translate(570.751953 0)"/>
      <use xlink:href="#DejaVuSans-4f" transform="translate(602.539062 0)"/>
      <use xlink:href="#DejaVuSans-66" transform="translate(681.25 0)"/>
      <use xlink:href="#DejaVuSans-66" transform="translate(716.455078 0)"/>
      <use xlink:href="#DejaVuSans-65" transform="translate(751.660156 0)"/>
      <use xlink:href="#DejaVuSans-72" transform="translate(813.183594 0)"/>
      <use xlink:href="#DejaVuSans-65" transform="translate(852.046875 0)"/>
      <use xlink:href="#DejaVuSans-64" transform="translate(913.570312 0)"/>
      <use xlink:href="#DejaVuSans-20" transform="translate(977.046875 0)"/>
      <use xlink:href="#DejaVuSans-56" transform="translate(1008.833984 0)"/>
      <use xlink:href="#DejaVuSans-6f" transform="translate(1069.492188 0)"/>
      <use xlink:href="#DejaVuSans-6c" transform="translate(1130.673828 0)"/>
      <use xlink:href="#DejaVuSans-75" transform="translate(1158.457031 0)"/>
      <use xlink:href="#DejaVuSans-6d" transform="translate(1221.835938 0)"/>
      <use xlink:href="#DejaVuSans-65" transform="translate(1319.248047 0)"/>
      <use xlink:href="#DejaVuSans-20" transform="translate(1380.771484 0)"/>
      <use xlink:href="#DejaVuSans-28" transform="translate(1412.558594 0)"/>
      <use xlink:href="#DejaVuSans-4d" transform="translate(1451.572266 0)"/>
      <use xlink:href="#DejaVuSans-57" transform="translate(1537.851562 0)"/>
      <use xlink:href="#DejaVuSans-29" transform="translate(1636.728516 0)"/>
     </g>
    </g>
   </g>
   <g id="matplotlib.axis_2">
    <g id="ytick_1">
     <g id="line2d_15">
      <path d="M 62.545455 431.651211 
L 909.032727 431.651211 
" clip-path="url(#p6ae023592d)" style="fill: none; stroke: #e6e6e6; stroke-opacity: 0.9; stroke-linecap: square"/>
     </g>
     <g id="line2d_16">
      <defs>
       <path id="m3c1a8758d1" d="M 0 0 
L -3.5 0 
" style="stroke: #333333; stroke-width: 0.8"/>
      </defs>
      <g>
       <use xlink:href="#m3c1a8758d1" x="62.545455" y="431.651211" style="fill: #333333; stroke: #333333; stroke-width: 0.8"/>
      </g>
     </g>
     <g id="text_9">
      <!-- 0 -->
      <g style="fill: #333333" transform="translate(49.182955 435.45043) scale(0.1 -0.1)">
       <use xlink:href="#DejaVuSans-30"/>
      </g>
     </g>
    </g>
    <g id="ytick_2">
     <g id="line2d_17">
      <path d="M 62.545455 375.098037 
L 909.032727 375.098037 
" clip-path="url(#p6ae023592d)" style="fill: none; stroke: #e6e6e6; stroke-opacity: 0.9; stroke-linecap: square"/>
     </g>
     <g id="line2d_18">
      <g>
       <use xlink:href="#m3c1a8758d1" x="62.545455" y="375.098037" style="fill: #333333; stroke: #333333; stroke-width: 0.8"/>
      </g>
     </g>
     <g id="text_10">
      <!-- 25 -->
      <g style="fill: #333333" transform="translate(42.820455 378.897256) scale(0.1 -0.1)">
       <defs>
        <path id="DejaVuSans-35" d="M 691 4666 
L 3169 4666 
L 3169 4134 
L 1269 4134 
L 1269 2991 
Q 1406 3038 1543 3061 
Q 1681 3084 1819 3084 
Q 2600 3084 3056 2656 
Q 3513 2228 3513 1497 
Q 3513 744 3044 326 
Q 2575 -91 1722 -91 
Q 1428 -91 1123 -41 
Q 819 9 494 109 
L 494 744 
Q 775 591 1075 516 
Q 1375 441 1709 441 
Q 2250 441 2565 725 
Q 2881 1009 2881 1497 
Q 2881 1984 2565 2268 
Q 2250 2553 1709 2553 
Q 1456 2553 1204 2497 
Q 953 2441 691 2322 
L 691 4666 
z
" transform="scale(0.015625)"/>
       </defs>
       <use xlink:href="#DejaVuSans-32"/>
       <use xlink:href="#DejaVuSans-35" transform="translate(63.623047 0)"/>
      </g>
     </g>
    </g>
    <g id="ytick_3">
     <g id="line2d_19">
      <path d="M 62.545455 318.544864 
L 909.032727 318.544864 
" clip-path="url(#p6ae023592d)" style="fill: none; stroke: #e6e6e6; stroke-opacity: 0.9; stroke-linecap: square"/>
     </g>
     <g id="line2d_20">
      <g>
       <use xlink:href="#m3c1a8758d1" x="62.545455" y="318.544864" style="fill: #333333; stroke: #333333; stroke-width: 0.8"/>
      </g>
     </g>
     <g id="text_11">
      <!-- 50 -->
      <g style="fill: #333333" transform="translate(42.820455 322.344082) scale(0.1 -0.1)">
       <use xlink:href="#DejaVuSans-35"/>
       <use xlink:href="#DejaVuSans-30" transform="translate(63.623047 0)"/>
      </g>
     </g>
    </g>
    <g id="ytick_4">
     <g id="line2d_21">
      <path d="M 62.545455 261.99169 
L 909.032727 261.99169 
" clip-path="url(#p6ae023592d)" style="fill: none; stroke: #e6e6e6; stroke-opacity: 0.9; stroke-linecap: square"/>
     </g>
     <g id="line2d_22">
      <g>
       <use xlink:href="#m3c1a8758d1" x="62.545455" y="261.99169" style="fill: #333333; stroke: #333333; stroke-width: 0.8"/>
      </g>
     </g>
     <g id="text_12">
      <!-- 75 -->
      <g style="fill: #333333" transform="translate(42.820455 265.790908) scale(0.1 -0.1)">
       <defs>
        <path id="DejaVuSans-37" d="M 525 4666 
L 3525 4666 
L 3525 4397 
L 1831 0 
L 1172 0 
L 2766 4134 
L 525 4134 
L 525 4666 
z
" transform="scale(0.015625)"/>
       </defs>
       <use xlink:href="#DejaVuSans-37"/>
       <use xlink:href="#DejaVuSans-35" transform="translate(63.623047 0)"/>
      </g>
     </g>
    </g>
    <g id="ytick_5">
     <g id="line2d_23">
      <path d="M 62.545455 205.438516 
L 909.032727 205.438516 
" clip-path="url(#p6ae023592d)" style="fill: none; stroke: #e6e6e6; stroke-opacity: 0.9; stroke-linecap: square"/>
     </g>
     <g id="line2d_24">
      <g>
       <use xlink:href="#m3c1a8758d1" x="62.545455" y="205.438516" style="fill: #333333; stroke: #333333; stroke-width: 0.8"/>
      </g>
     </g>
     <g id="text_13">
      <!-- 100 -->
      <g style="fill: #333333" transform="translate(36.457955 209.237735) scale(0.1 -0.1)">
       <use xlink:href="#DejaVuSans-31"/>
       <use xlink:href="#DejaVuSans-30" transform="translate(63.623047 0)"/>
       <use xlink:href="#DejaVuSans-30" transform="translate(127.246094 0)"/>
      </g>
     </g>
    </g>
    <g id="ytick_6">
     <g id="line2d_25">
      <path d="M 62.545455 148.885342 
L 909.032727 148.885342 
" clip-path="url(#p6ae023592d)" style="fill: none; stroke: #e6e6e6; stroke-opacity: 0.9; stroke-linecap: square"/>
     </g>
     <g id="line2d_26">
      <g>
       <use xlink:href="#m3c1a8758d1" x="62.545455" y="148.885342" style="fill: #333333; stroke: #333333; stroke-width: 0.8"/>
      </g>
     </g>
     <g id="text_14">
      <!-- 125 -->
      <g style="fill: #333333" transform="translate(36.457955 152.684561) scale(0.1 -0.1)">
       <use xlink:href="#DejaVuSans-31"/>
       <use xlink:href="#DejaVuSans-32" transform="translate(63.623047 0)"/>
       <use xlink:href="#DejaVuSans-35" transform="translate(127.246094 0)"/>
      </g>
     </g>
    </g>
    <g id="ytick_7">
     <g id="line2d_27">
      <path d="M 62.545455 92.332168 
L 909.032727 92.332168 
" clip-path="url(#p6ae023592d)" style="fill: none; stroke: #e6e6e6; stroke-opacity: 0.9; stroke-linecap: square"/>
     </g>
     <g id="line2d_28">
      <g>
       <use xlink:href="#m3c1a8758d1" x="62.545455" y="92.332168" style="fill: #333333; stroke: #333333; stroke-width: 0.8"/>
      </g>
     </g>
     <g id="text_15">
      <!-- 150 -->
      <g style="fill: #333333" transform="translate(36.457955 96.131387) scale(0.1 -0.1)">
       <use xlink:href="#DejaVuSans-31"/>
       <use xlink:href="#DejaVuSans-35" transform="translate(63.623047 0)"/>
       <use xlink:href="#DejaVuSans-30" transform="translate(127.246094 0)"/>
      </g>
     </g>
    </g>
    <g id="ytick_8">
     <g id="line2d_29">
      <path d="M 62.545455 35.778994 
L 909.032727 35.778994 
" clip-path="url(#p6ae023592d)" style="fill: none; stroke: #e6e6e6; stroke-opacity: 0.9; stroke-linecap: square"/>
     </g>
     <g id="line2d_30">
      <g>
       <use xlink:href="#m3c1a8758d1" x="62.545455" y="35.778994" style="fill: #333333; stroke: #333333; stroke-width: 0.8"/>
      </g>
     </g>
     <g id="text_16">
      <!-- 175 -->
      <g style="fill: #333333" transform="translate(36.457955 39.578213) scale(0.1 -0.1)">
       <use xlink:href="#DejaVuSans-31"/>
       <use xlink:href="#DejaVuSans-37" transform="translate(63.623047 0)"/>
       <use xlink:href="#DejaVuSans-35" transform="translate(127.246094 0)"/>
      </g>
     </g>
    </g>
    <g id="text_17">
     <!-- Price (EUR/MWh) -->
     <g transform="translate(29.96233 293.647487) rotate(-90) scale(0.12 -0.12)">
      <defs>
       <path id="DejaVuSans-50" d="M 1259 4147 
L 1259 2394 
L 2053 2394 
Q 2494 2394 2734 2622 
Q 2975 2850 2975 3272 
Q 2975 3691 2734 3919 
Q 2494 4147 2053 4147 
L 1259 4147 
z
M 628 4666 
L 2053 4666 
Q 2838 4666 3239 4311 
Q 3641 3956 3641 3272 
Q 3641 2581 3239 2228 
Q 2838 1875 2053 1875 
L 1259 1875 
L 1259 0 
L 628 0 
L 628 4666 
z
" transform="scale(0.015625)"/>
       <path id="DejaVuSans-63" d="M 3122 3366 
L 3122 2828 
Q 2878 2963 2633 3030 
Q 2388 3097 2138 3097 
Q 1578 3097 1268 2742 
Q 959 2388 959 1747 
Q 959 1106 1268 751 
Q 1578 397 2138 397 
Q 2388 397 2633 464 
Q 2878 531 3122 666 
L 3122 134 
Q 2881 22 2623 -34 
Q 2366 -91 2075 -91 
Q 1284 -91 818 406 
Q 353 903 353 1747 
Q 353 2603 823 3093 
Q 1294 3584 2113 3584 
Q 2378 3584 2631 3529 
Q 2884 3475 3122 3366 
z
" transform="scale(0.015625)"/>
       <path id="DejaVuSans-45" d="M 628 4666 
L 3578 4666 
L 3578 4134 
L 1259 4134 
L 1259 2753 
L 3481 2753 
L 3481 2222 
L 1259 2222 
L 1259 531 
L 3634 531 
L 3634 0 
L 628 0 
L 628 4666 
z
" transform="scale(0.015625)"/>
       <path id="DejaVuSans-55" d="M 556 4666 
L 1191 4666 
L 1191 1831 
Q 1191 1081 1462 751 
Q 1734 422 2344 422 
Q 2950 422 3222 751 
Q 3494 1081 3494 1831 
L 3494 4666 
L 4128 4666 
L 4128 1753 
Q 4128 841 3676 375 
Q 3225 -91 2344 -91 
Q 1459 -91 1007 375 
Q 556 841 556 1753 
L 556 4666 
z
" transform="scale(0.015625)"/>
       <path id="DejaVuSans-52" d="M 2841 2188 
Q 3044 2119 3236 1894 
Q 3428 1669 3622 1275 
L 4263 0 
L 3584 0 
L 2988 1197 
Q 2756 1666 2539 1819 
Q 2322 1972 1947 1972 
L 1259 1972 
L 1259 0 
L 628 0 
L 628 4666 
L 2053 4666 
Q 2853 4666 3247 4331 
Q 3641 3997 3641 3322 
Q 3641 2881 3436 2590 
Q 3231 2300 2841 2188 
z
M 1259 4147 
L 1259 2491 
L 2053 2491 
Q 2509 2491 2742 2702 
Q 2975 2913 2975 3322 
Q 2975 3731 2742 3939 
Q 2509 4147 2053 4147 
L 1259 4147 
z
" transform="scale(0.015625)"/>
       <path id="DejaVuSans-2f" d="M 1625 4666 
L 2156 4666 
L 531 -594 
L 0 -594 
L 1625 4666 
z
" transform="scale(0.015625)"/>
       <path id="DejaVuSans-68" d="M 3513 2113 
L 3513 0 
L 2938 0 
L 2938 2094 
Q 2938 2591 2744 2837 
Q 2550 3084 2163 3084 
Q 1697 3084 1428 2787 
Q 1159 2491 1159 1978 
L 1159 0 
L 581 0 
L 581 4863 
L 1159 4863 
L 1159 2956 
Q 1366 3272 1645 3428 
Q 1925 3584 2291 3584 
Q 2894 3584 3203 3211 
Q 3513 2838 3513 2113 
z
" transform="scale(0.015625)"/>
      </defs>
      <use xlink:href="#DejaVuSans-50"/>
      <use xlink:href="#DejaVuSans-72" transform="translate(58.552734 0)"/>
      <use xlink:href="#DejaVuSans-69" transform="translate(99.666016 0)"/>
      <use xlink:href="#DejaVuSans-63" transform="translate(127.449219 0)"/>
      <use xlink:href="#DejaVuSans-65" transform="translate(182.429688 0)"/>
      <use xlink:href="#DejaVuSans-20" transform="translate(243.953125 0)"/>
      <use xlink:href="#DejaVuSans-28" transform="translate(275.740234 0)"/>
      <use xlink:href="#DejaVuSans-45" transform="translate(314.753906 0)"/>
      <use xlink:href="#DejaVuSans-55" transform="translate(377.9375 0)"/>
      <use xlink:href="#DejaVuSans-52" transform="translate(451.130859 0)"/>
      <use xlink:href="#DejaVuSans-2f" transform="translate(520.613281 0)"/>
      <use xlink:href="#DejaVuSans-4d" transform="translate(554.304688 0)"/>
      <use xlink:href="#DejaVuSans-57" transform="translate(640.583984 0)"/>
      <use xlink:href="#DejaVuSans-68" transform="translate(739.460938 0)"/>
      <use xlink:href="#DejaVuSans-29" transform="translate(802.839844 0)"/>
     </g>
    </g>
   </g>
   <g id="patch_3">
    <path d="M 62.545455 450.502646 
L 62.545455 35.771077 
" style="fill: none; stroke: #cccccc; stroke-width: 0.8; stroke-linejoin: miter; stroke-linecap: square"/>
   </g>
   <g id="patch_4">
    <path d="M 62.545455 450.502646 
L 909.032727 450.502646 
" style="fill: none; stroke: #cccccc; stroke-width: 0.8; stroke-linejoin: miter; stroke-linecap: square"/>
   </g>
   <g id="line2d_31">
    <path d="M 101.022149 387.290902 
L 113.955491 387.290902 
L 113.955491 386.883719 
L 126.888834 386.838476 
L 126.888834 386.499157 
L 133.355505 386.499157 
L 133.355505 386.386051 
L 139.822177 386.386051 
L 139.822177 386.091974 
L 146.288848 386.091974 
L 146.288848 385.933625 
L 152.755519 385.933625 
L 152.755519 385.752655 
L 165.688862 385.684791 
L 165.688862 385.4812 
L 172.155533 385.4812 
L 172.155533 385.368094 
L 185.088876 385.30023 
L 185.088876 385.074017 
L 198.022218 385.028775 
L 198.022218 384.893047 
L 210.955561 384.847805 
L 210.955561 384.621592 
L 230.355575 384.553728 
L 230.355575 384.395379 
L 236.822246 384.395379 
L 236.822246 384.23703 
L 249.755589 384.169166 
L 249.755589 384.123924 
L 256.22226 384.123924 
L 256.22226 383.942954 
L 262.688931 383.942954 
L 262.688931 383.716741 
L 275.622274 383.671499 
L 275.622274 383.490528 
L 288.555616 383.422665 
L 288.555616 383.264316 
L 301.488959 383.219073 
L 301.488959 383.105967 
L 314.422302 383.038103 
L 314.422302 382.81189 
L 320.888973 382.81189 
L 320.888973 382.585678 
L 327.355644 382.585678 
L 327.355644 382.359465 
L 333.822315 382.359465 
L 333.822315 382.133252 
L 489.022427 382.110631 
L 489.022427 381.907039 
L 495.489098 381.907039 
L 495.489098 381.680827 
L 501.955769 381.680827 
L 501.955769 381.56772 
L 508.42244 381.56772 
L 508.42244 381.454614 
L 514.889112 381.454614 
L 514.889112 381.228401 
L 521.355783 381.228401 
L 521.355783 381.002189 
L 527.822454 381.002189 
L 527.822454 380.775976 
L 534.289126 380.775976 
L 534.289126 380.549763 
L 540.755797 380.549763 
L 540.755797 380.323551 
L 547.222468 380.323551 
L 547.222468 380.097338 
L 553.68914 380.097338 
L 553.68914 375.098037 
L 560.155811 375.098037 
L 560.155811 374.849203 
L 566.622482 374.849203 
L 566.622482 374.600369 
L 573.089153 374.600369 
L 573.089153 374.351535 
L 579.555825 374.351535 
L 579.555825 374.102701 
L 586.022496 374.102701 
L 586.022496 373.853868 
L 592.489167 373.853868 
L 592.489167 373.605034 
L 598.955839 373.605034 
L 598.955839 373.3562 
L 605.42251 373.3562 
L 605.42251 373.107366 
L 611.889181 373.107366 
L 611.889181 372.83591 
L 618.355852 372.83591 
L 618.355852 372.587076 
L 624.822524 372.587076 
L 624.822524 372.338242 
L 631.289195 372.338242 
L 631.289195 372.089409 
L 637.755866 372.089409 
L 637.755866 371.840575 
L 644.222538 371.840575 
L 644.222538 371.591741 
L 650.689209 371.591741 
L 650.689209 371.342907 
L 657.15588 371.342907 
L 657.15588 371.094073 
L 663.622552 371.094073 
L 663.622552 370.845239 
L 670.089223 370.845239 
L 670.089223 370.573783 
L 676.555894 370.573783 
L 676.555894 370.324949 
L 683.022565 370.324949 
L 683.022565 370.076116 
L 689.489237 370.076116 
L 689.489237 369.827282 
L 695.955908 369.827282 
L 695.955908 369.578448 
L 702.422579 369.578448 
L 702.422579 369.329614 
L 708.889251 369.329614 
L 708.889251 369.08078 
L 715.355922 369.08078 
L 715.355922 368.831946 
L 721.822593 368.831946 
L 721.822593 368.583112 
L 741.222607 368.583112 
L 741.222607 352.476768 
L 747.689278 352.476768 
L 747.689278 318.544864 
L 754.15595 318.544864 
L 754.15595 305.967438 
L 760.622621 305.967438 
L 760.622621 255.702977 
L 773.555964 255.702977 
L 773.555964 230.570746 
L 786.489306 230.570746 
L 786.489306 205.438516 
L 792.955977 205.438516 
L 792.955977 180.283664 
L 805.88932 180.283664 
L 805.88932 155.151434 
L 818.822663 155.151434 
L 818.822663 142.596629 
L 825.289334 142.596629 
L 825.289334 130.019203 
L 831.756005 130.019203 
L 831.756005 92.332168 
L 851.156019 92.332168 
L 851.156019 79.754742 
L 870.556033 79.754742 
L 870.556033 54.622512 
L 870.556033 54.622512 
" clip-path="url(#p6ae023592d)" style="fill: none; stroke: #000000; stroke-width: 2.5; stroke-linecap: square"/>
   </g>
   <g id="text_18">
    <!-- Merit Order Example - Block 2025-01-10 04:00:00 -->
    <g transform="translate(290.321747 23.771077) scale(0.14 -0.14)">
     <defs>
      <path id="DejaVuSans-Bold-4d" d="M 588 4666 
L 2119 4666 
L 3181 2169 
L 4250 4666 
L 5778 4666 
L 5778 0 
L 4641 0 
L 4641 3413 
L 3566 897 
L 2803 897 
L 1728 3413 
L 1728 0 
L 588 0 
L 588 4666 
z
" transform="scale(0.015625)"/>
      <path id="DejaVuSans-Bold-65" d="M 4031 1759 
L 4031 1441 
L 1416 1441 
Q 1456 1047 1700 850 
Q 1944 653 2381 653 
Q 2734 653 3104 758 
Q 3475 863 3866 1075 
L 3866 213 
Q 3469 63 3072 -14 
Q 2675 -91 2278 -91 
Q 1328 -91 801 392 
Q 275 875 275 1747 
Q 275 2603 792 3093 
Q 1309 3584 2216 3584 
Q 3041 3584 3536 3087 
Q 4031 2591 4031 1759 
z
M 2881 2131 
Q 2881 2450 2695 2645 
Q 2509 2841 2209 2841 
Q 1884 2841 1681 2658 
Q 1478 2475 1428 2131 
L 2881 2131 
z
" transform="scale(0.015625)"/>
      <path id="DejaVuSans-Bold-72" d="M 3138 2547 
Q 2991 2616 2845 2648 
Q 2700 2681 2553 2681 
Q 2122 2681 1889 2404 
Q 1656 2128 1656 1613 
L 1656 0 
L 538 0 
L 538 3500 
L 1656 3500 
L 1656 2925 
Q 1872 3269 2151 3426 
Q 2431 3584 2822 3584 
Q 2878 3584 2943 3579 
Q 3009 3575 3134 3559 
L 3138 2547 
z
" transform="scale(0.015625)"/>
      <path id="DejaVuSans-Bold-69" d="M 538 3500 
L 1656 3500 
L 1656 0 
L 538 0 
L 538 3500 
z
M 538 4863 
L 1656 4863 
L 1656 3950 
L 538 3950 
L 538 4863 
z
" transform="scale(0.015625)"/>
      <path id="DejaVuSans-Bold-74" d="M 1759 4494 
L 1759 3500 
L 2913 3500 
L 2913 2700 
L 1759 2700 
L 1759 1216 
Q 1759 972 1856 886 
Q 1953 800 2241 800 
L 2816 800 
L 2816 0 
L 1856 0 
Q 1194 0 917 276 
Q 641 553 641 1216 
L 641 2700 
L 84 2700 
L 84 3500 
L 641 3500 
L 641 4494 
L 1759 4494 
z
" transform="scale(0.015625)"/>
      <path id="DejaVuSans-Bold-20" transform="scale(0.015625)"/>
      <path id="DejaVuSans-Bold-4f" d="M 2719 3878 
Q 2169 3878 1866 3472 
Q 1563 3066 1563 2328 
Q 1563 1594 1866 1187 
Q 2169 781 2719 781 
Q 3272 781 3575 1187 
Q 3878 1594 3878 2328 
Q 3878 3066 3575 3472 
Q 3272 3878 2719 3878 
z
M 2719 4750 
Q 3844 4750 4481 4106 
Q 5119 3463 5119 2328 
Q 5119 1197 4481 553 
Q 3844 -91 2719 -91 
Q 1597 -91 958 553 
Q 319 1197 319 2328 
Q 319 3463 958 4106 
Q 1597 4750 2719 4750 
z
" transform="scale(0.015625)"/>
      <path id="DejaVuSans-Bold-64" d="M 2919 2988 
L 2919 4863 
L 4044 4863 
L 4044 0 
L 2919 0 
L 2919 506 
Q 2688 197 2409 53 
Q 2131 -91 1766 -91 
Q 1119 -91 703 423 
Q 288 938 288 1747 
Q 288 2556 703 3070 
Q 1119 3584 1766 3584 
Q 2128 3584 2408 3439 
Q 2688 3294 2919 2988 
z
M 2181 722 
Q 2541 722 2730 984 
Q 2919 1247 2919 1747 
Q 2919 2247 2730 2509 
Q 2541 2772 2181 2772 
Q 1825 2772 1636 2509 
Q 1447 2247 1447 1747 
Q 1447 1247 1636 984 
Q 1825 722 2181 722 
z
" transform="scale(0.015625)"/>
      <path id="DejaVuSans-Bold-45" d="M 588 4666 
L 3834 4666 
L 3834 3756 
L 1791 3756 
L 1791 2888 
L 3713 2888 
L 3713 1978 
L 1791 1978 
L 1791 909 
L 3903 909 
L 3903 0 
L 588 0 
L 588 4666 
z
" transform="scale(0.015625)"/>
      <path id="DejaVuSans-Bold-78" d="M 1422 1791 
L 159 3500 
L 1344 3500 
L 2059 2463 
L 2784 3500 
L 3969 3500 
L 2706 1797 
L 4031 0 
L 2847 0 
L 2059 1106 
L 1281 0 
L 97 0 
L 1422 1791 
z
" transform="scale(0.015625)"/>
      <path id="DejaVuSans-Bold-61" d="M 2106 1575 
Q 1756 1575 1579 1456 
Q 1403 1338 1403 1106 
Q 1403 894 1545 773 
Q 1688 653 1941 653 
Q 2256 653 2472 879 
Q 2688 1106 2688 1447 
L 2688 1575 
L 2106 1575 
z
M 3816 1997 
L 3816 0 
L 2688 0 
L 2688 519 
Q 2463 200 2181 54 
Q 1900 -91 1497 -91 
Q 953 -91 614 226 
Q 275 544 275 1050 
Q 275 1666 698 1953 
Q 1122 2241 2028 2241 
L 2688 2241 
L 2688 2328 
Q 2688 2594 2478 2717 
Q 2269 2841 1825 2841 
Q 1466 2841 1156 2769 
Q 847 2697 581 2553 
L 581 3406 
Q 941 3494 1303 3539 
Q 1666 3584 2028 3584 
Q 2975 3584 3395 3211 
Q 3816 2838 3816 1997 
z
" transform="scale(0.015625)"/>
      <path id="DejaVuSans-Bold-6d" d="M 3781 2919 
Q 3994 3244 4286 3414 
Q 4578 3584 4928 3584 
Q 5531 3584 5847 3212 
Q 6163 2841 6163 2131 
L 6163 0 
L 5038 0 
L 5038 1825 
Q 5041 1866 5042 1909 
Q 5044 1953 5044 2034 
Q 5044 2406 4934 2573 
Q 4825 2741 4581 2741 
Q 4263 2741 4089 2478 
Q 3916 2216 3909 1719 
L 3909 0 
L 2784 0 
L 2784 1825 
Q 2784 2406 2684 2573 
Q 2584 2741 2328 2741 
Q 2006 2741 1831 2477 
Q 1656 2213 1656 1722 
L 1656 0 
L 531 0 
L 531 3500 
L 1656 3500 
L 1656 2988 
Q 1863 3284 2130 3434 
Q 2397 3584 2719 3584 
Q 3081 3584 3359 3409 
Q 3638 3234 3781 2919 
z
" transform="scale(0.015625)"/>
      <path id="DejaVuSans-Bold-70" d="M 1656 506 
L 1656 -1331 
L 538 -1331 
L 538 3500 
L 1656 3500 
L 1656 2988 
Q 1888 3294 2169 3439 
Q 2450 3584 2816 3584 
Q 3463 3584 3878 3070 
Q 4294 2556 4294 1747 
Q 4294 938 3878 423 
Q 3463 -91 2816 -91 
Q 2450 -91 2169 54 
Q 1888 200 1656 506 
z
M 2400 2772 
Q 2041 2772 1848 2508 
Q 1656 2244 1656 1747 
Q 1656 1250 1848 986 
Q 2041 722 2400 722 
Q 2759 722 2948 984 
Q 3138 1247 3138 1747 
Q 3138 2247 2948 2509 
Q 2759 2772 2400 2772 
z
" transform="scale(0.015625)"/>
      <path id="DejaVuSans-Bold-6c" d="M 538 4863 
L 1656 4863 
L 1656 0 
L 538 0 
L 538 4863 
z
" transform="scale(0.015625)"/>
      <path id="DejaVuSans-Bold-2d" d="M 347 2297 
L 2309 2297 
L 2309 1388 
L 347 1388 
L 347 2297 
z
" transform="scale(0.015625)"/>
      <path id="DejaVuSans-Bold-42" d="M 2456 2859 
Q 2741 2859 2887 2984 
Q 3034 3109 3034 3353 
Q 3034 3594 2887 3720 
Q 2741 3847 2456 3847 
L 1791 3847 
L 1791 2859 
L 2456 2859 
z
M 2497 819 
Q 2859 819 3042 972 
Q 3225 1125 3225 1434 
Q 3225 1738 3044 1889 
Q 2863 2041 2497 2041 
L 1791 2041 
L 1791 819 
L 2497 819 
z
M 3616 2497 
Q 4003 2384 4215 2081 
Q 4428 1778 4428 1338 
Q 4428 663 3972 331 
Q 3516 0 2584 0 
L 588 0 
L 588 4666 
L 2394 4666 
Q 3366 4666 3802 4372 
Q 4238 4078 4238 3431 
Q 4238 3091 4078 2852 
Q 3919 2613 3616 2497 
z
" transform="scale(0.015625)"/>
      <path id="DejaVuSans-Bold-6f" d="M 2203 2784 
Q 1831 2784 1636 2517 
Q 1441 2250 1441 1747 
Q 1441 1244 1636 976 
Q 1831 709 2203 709 
Q 2569 709 2762 976 
Q 2956 1244 2956 1747 
Q 2956 2250 2762 2517 
Q 2569 2784 2203 2784 
z
M 2203 3584 
Q 3106 3584 3614 3096 
Q 4122 2609 4122 1747 
Q 4122 884 3614 396 
Q 3106 -91 2203 -91 
Q 1297 -91 786 396 
Q 275 884 275 1747 
Q 275 2609 786 3096 
Q 1297 3584 2203 3584 
z
" transform="scale(0.015625)"/>
      <path id="DejaVuSans-Bold-63" d="M 3366 3391 
L 3366 2478 
Q 3138 2634 2908 2709 
Q 2678 2784 2431 2784 
Q 1963 2784 1702 2511 
Q 1441 2238 1441 1747 
Q 1441 1256 1702 982 
Q 1963 709 2431 709 
Q 2694 709 2930 787 
Q 3166 866 3366 1019 
L 3366 103 
Q 3103 6 2833 -42 
Q 2563 -91 2291 -91 
Q 1344 -91 809 395 
Q 275 881 275 1747 
Q 275 2613 809 3098 
Q 1344 3584 2291 3584 
Q 2566 3584 2833 3536 
Q 3100 3488 3366 3391 
z
" transform="scale(0.015625)"/>
      <path id="DejaVuSans-Bold-6b" d="M 538 4863 
L 1656 4863 
L 1656 2216 
L 2944 3500 
L 4244 3500 
L 2534 1894 
L 4378 0 
L 3022 0 
L 1656 1459 
L 1656 0 
L 538 0 
L 538 4863 
z
" transform="scale(0.015625)"/>
      <path id="DejaVuSans-Bold-32" d="M 1844 884 
L 3897 884 
L 3897 0 
L 506 0 
L 506 884 
L 2209 2388 
Q 2438 2594 2547 2791 
Q 2656 2988 2656 3200 
Q 2656 3528 2436 3728 
Q 2216 3928 1850 3928 
Q 1569 3928 1234 3808 
Q 900 3688 519 3450 
L 519 4475 
Q 925 4609 1322 4679 
Q 1719 4750 2100 4750 
Q 2938 4750 3402 4381 
Q 3866 4013 3866 3353 
Q 3866 2972 3669 2642 
Q 3472 2313 2841 1759 
L 1844 884 
z
" transform="scale(0.015625)"/>
      <path id="DejaVuSans-Bold-30" d="M 2944 2338 
Q 2944 3213 2780 3570 
Q 2616 3928 2228 3928 
Q 1841 3928 1675 3570 
Q 1509 3213 1509 2338 
Q 1509 1453 1675 1090 
Q 1841 728 2228 728 
Q 2613 728 2778 1090 
Q 2944 1453 2944 2338 
z
M 4147 2328 
Q 4147 1169 3647 539 
Q 3147 -91 2228 -91 
Q 1306 -91 806 539 
Q 306 1169 306 2328 
Q 306 3491 806 4120 
Q 1306 4750 2228 4750 
Q 3147 4750 3647 4120 
Q 4147 3491 4147 2328 
z
" transform="scale(0.015625)"/>
      <path id="DejaVuSans-Bold-35" d="M 678 4666 
L 3669 4666 
L 3669 3781 
L 1638 3781 
L 1638 3059 
Q 1775 3097 1914 3117 
Q 2053 3138 2203 3138 
Q 3056 3138 3531 2711 
Q 4006 2284 4006 1522 
Q 4006 766 3489 337 
Q 2972 -91 2053 -91 
Q 1656 -91 1267 -14 
Q 878 63 494 219 
L 494 1166 
Q 875 947 1217 837 
Q 1559 728 1863 728 
Q 2300 728 2551 942 
Q 2803 1156 2803 1522 
Q 2803 1891 2551 2103 
Q 2300 2316 1863 2316 
Q 1603 2316 1309 2248 
Q 1016 2181 678 2041 
L 678 4666 
z
" transform="scale(0.015625)"/>
      <path id="DejaVuSans-Bold-31" d="M 750 831 
L 1813 831 
L 1813 3847 
L 722 3622 
L 722 4441 
L 1806 4666 
L 2950 4666 
L 2950 831 
L 4013 831 
L 4013 0 
L 750 0 
L 750 831 
z
" transform="scale(0.015625)"/>
      <path id="DejaVuSans-Bold-34" d="M 2356 3675 
L 1038 1722 
L 2356 1722 
L 2356 3675 
z
M 2156 4666 
L 3494 4666 
L 3494 1722 
L 4159 1722 
L 4159 850 
L 3494 850 
L 3494 0 
L 2356 0 
L 2356 850 
L 288 850 
L 288 1881 
L 2156 4666 
z
" transform="scale(0.015625)"/>
      <path id="DejaVuSans-Bold-3a" d="M 716 3500 
L 1844 3500 
L 1844 2291 
L 716 2291 
L 716 3500 
z
M 716 1209 
L 1844 1209 
L 1844 0 
L 716 0 
L 716 1209 
z
" transform="scale(0.015625)"/>
     </defs>
     <use xlink:href="#DejaVuSans-Bold-4d"/>
     <use xlink:href="#DejaVuSans-Bold-65" transform="translate(99.511719 0)"/>
     <use xlink:href="#DejaVuSans-Bold-72" transform="translate(167.333984 0)"/>
     <use xlink:href="#DejaVuSans-Bold-69" transform="translate(216.650391 0)"/>
     <use xlink:href="#DejaVuSans-Bold-74" transform="translate(250.927734 0)"/>
     <use xlink:href="#DejaVuSans-Bold-20" transform="translate(298.730469 0)"/>
     <use xlink:href="#DejaVuSans-Bold-4f" transform="translate(333.544922 0)"/>
     <use xlink:href="#DejaVuSans-Bold-72" transform="translate(418.554688 0)"/>
     <use xlink:href="#DejaVuSans-Bold-64" transform="translate(467.871094 0)"/>
     <use xlink:href="#DejaVuSans-Bold-65" transform="translate(539.453125 0)"/>
     <use xlink:href="#DejaVuSans-Bold-72" transform="translate(607.275391 0)"/>
     <use xlink:href="#DejaVuSans-Bold-20" transform="translate(656.591797 0)"/>
     <use xlink:href="#DejaVuSans-Bold-45" transform="translate(691.40625 0)"/>
     <use xlink:href="#DejaVuSans-Bold-78" transform="translate(759.716797 0)"/>
     <use xlink:href="#DejaVuSans-Bold-61" transform="translate(824.21875 0)"/>
     <use xlink:href="#DejaVuSans-Bold-6d" transform="translate(891.699219 0)"/>
     <use xlink:href="#DejaVuSans-Bold-70" transform="translate(995.898438 0)"/>
     <use xlink:href="#DejaVuSans-Bold-6c" transform="translate(1067.480469 0)"/>
     <use xlink:href="#DejaVuSans-Bold-65" transform="translate(1101.757812 0)"/>
     <use xlink:href="#DejaVuSans-Bold-20" transform="translate(1169.580078 0)"/>
     <use xlink:href="#DejaVuSans-Bold-2d" transform="translate(1204.394531 0)"/>
     <use xlink:href="#DejaVuSans-Bold-20" transform="translate(1245.898438 0)"/>
     <use xlink:href="#DejaVuSans-Bold-42" transform="translate(1280.712891 0)"/>
     <use xlink:href="#DejaVuSans-Bold-6c" transform="translate(1356.933594 0)"/>
     <use xlink:href="#DejaVuSans-Bold-6f" transform="translate(1391.210938 0)"/>
     <use xlink:href="#DejaVuSans-Bold-63" transform="translate(1459.912109 0)"/>
     <use xlink:href="#DejaVuSans-Bold-6b" transform="translate(1519.189453 0)"/>
     <use xlink:href="#DejaVuSans-Bold-20" transform="translate(1585.693359 0)"/>
     <use xlink:href="#DejaVuSans-Bold-32" transform="translate(1620.507812 0)"/>
     <use xlink:href="#DejaVuSans-Bold-30" transform="translate(1690.087891 0)"/>
     <use xlink:href="#DejaVuSans-Bold-32" transform="translate(1759.667969 0)"/>
     <use xlink:href="#DejaVuSans-Bold-35" transform="translate(1829.248047 0)"/>
     <use xlink:href="#DejaVuSans-Bold-2d" transform="translate(1898.828125 0)"/>
     <use xlink:href="#DejaVuSans-Bold-30" transform="translate(1940.332031 0)"/>
     <use xlink:href="#DejaVuSans-Bold-31" transform="translate(2009.912109 0)"/>
     <use xlink:href="#DejaVuSans-Bold-2d" transform="translate(2079.492188 0)"/>
     <use xlink:href="#DejaVuSans-Bold-31" transform="translate(2120.996094 0)"/>
     <use xlink:href="#DejaVuSans-Bold-30" transform="translate(2190.576172 0)"/>
     <use xlink:href="#DejaVuSans-Bold-20" transform="translate(2260.15625 0)"/>
     <use xlink:href="#DejaVuSans-Bold-30" transform="translate(2294.970703 0)"/>
     <use xlink:href="#DejaVuSans-Bold-34" transform="translate(2364.550781 0)"/>
     <use xlink:href="#DejaVuSans-Bold-3a" transform="translate(2434.130859 0)"/>
     <use xlink:href="#DejaVuSans-Bold-30" transform="translate(2474.121094 0)"/>
     <use xlink:href="#DejaVuSans-Bold-30" transform="translate(2543.701172 0)"/>
     <use xlink:href="#DejaVuSans-Bold-3a" transform="translate(2613.28125 0)"/>
     <use xlink:href="#DejaVuSans-Bold-30" transform="translate(2653.271484 0)"/>
     <use xlink:href="#DejaVuSans-Bold-30" transform="translate(2722.851562 0)"/>
    </g>
   </g>
   <g id="line2d_32">
    <path d="M 508.42244 450.502646 
L 508.42244 35.771077 
" clip-path="url(#p6ae023592d)" style="fill: none; stroke-dasharray: 9.25,4; stroke-dashoffset: 0; stroke: #d62728; stroke-width: 2.5"/>
   </g>
   <g id="legend_1">
    <g id="line2d_33">
     <path d="M 71.545455 48.869514 
L 81.545455 48.869514 
L 81.545455 48.869514 
L 91.545455 48.869514 
L 91.545455 48.869514 
" style="fill: none; stroke: #000000; stroke-width: 2.5; stroke-linecap: square"/>
    </g>
    <g id="text_19">
     <!-- Merit order (offer stack) -->
     <g transform="translate(99.545455 52.369514) scale(0.1 -0.1)">
      <defs>
       <path id="DejaVuSans-73" d="M 2834 3397 
L 2834 2853 
Q 2591 2978 2328 3040 
Q 2066 3103 1784 3103 
Q 1356 3103 1142 2972 
Q 928 2841 928 2578 
Q 928 2378 1081 2264 
Q 1234 2150 1697 2047 
L 1894 2003 
Q 2506 1872 2764 1633 
Q 3022 1394 3022 966 
Q 3022 478 2636 193 
Q 2250 -91 1575 -91 
Q 1294 -91 989 -36 
Q 684 19 347 128 
L 347 722 
Q 666 556 975 473 
Q 1284 391 1588 391 
Q 1994 391 2212 530 
Q 2431 669 2431 922 
Q 2431 1156 2273 1281 
Q 2116 1406 1581 1522 
L 1381 1569 
Q 847 1681 609 1914 
Q 372 2147 372 2553 
Q 372 3047 722 3315 
Q 1072 3584 1716 3584 
Q 2034 3584 2315 3537 
Q 2597 3491 2834 3397 
z
" transform="scale(0.015625)"/>
       <path id="DejaVuSans-6b" d="M 581 4863 
L 1159 4863 
L 1159 1991 
L 2875 3500 
L 3609 3500 
L 1753 1863 
L 3688 0 
L 2938 0 
L 1159 1709 
L 1159 0 
L 581 0 
L 581 4863 
z
" transform="scale(0.015625)"/>
      </defs>
      <use xlink:href="#DejaVuSans-4d"/>
      <use xlink:href="#DejaVuSans-65" transform="translate(86.279297 0)"/>
      <use xlink:href="#DejaVuSans-72" transform="translate(147.802734 0)"/>
      <use xlink:href="#DejaVuSans-69" transform="translate(188.916016 0)"/>
      <use xlink:href="#DejaVuSans-74" transform="translate(216.699219 0)"/>
      <use xlink:href="#DejaVuSans-20" transform="translate(255.908203 0)"/>
      <use xlink:href="#DejaVuSans-6f" transform="translate(287.695312 0)"/>
      <use xlink:href="#DejaVuSans-72" transform="translate(348.876953 0)"/>
      <use xlink:href="#DejaVuSans-64" transform="translate(388.240234 0)"/>
      <use xlink:href="#DejaVuSans-65" transform="translate(451.716797 0)"/>
      <use xlink:href="#DejaVuSans-72" transform="translate(513.240234 0)"/>
      <use xlink:href="#DejaVuSans-20" transform="translate(554.353516 0)"/>
      <use xlink:href="#DejaVuSans-28" transform="translate(586.140625 0)"/>
      <use xlink:href="#DejaVuSans-6f" transform="translate(625.154297 0)"/>
      <use xlink:href="#DejaVuSans-66" transform="translate(686.335938 0)"/>
      <use xlink:href="#DejaVuSans-66" transform="translate(721.541016 0)"/>
      <use xlink:href="#DejaVuSans-65" transform="translate(756.746094 0)"/>
      <use xlink:href="#DejaVuSans-72" transform="translate(818.269531 0)"/>
      <use xlink:href="#DejaVuSans-20" transform="translate(859.382812 0)"/>
      <use xlink:href="#DejaVuSans-73" transform="translate(891.169922 0)"/>
      <use xlink:href="#DejaVuSans-74" transform="translate(943.269531 0)"/>
      <use xlink:href="#DejaVuSans-61" transform="translate(982.478516 0)"/>
      <use xlink:href="#DejaVuSans-63" transform="translate(1043.757812 0)"/>
      <use xlink:href="#DejaVuSans-6b" transform="translate(1098.738281 0)"/>
      <use xlink:href="#DejaVuSans-29" transform="translate(1156.648438 0)"/>
     </g>
    </g>
    <g id="line2d_34">
     <path d="M 71.545455 63.547639 
L 81.545455 63.547639 
L 91.545455 63.547639 
" style="fill: none; stroke-dasharray: 9.25,4; stroke-dashoffset: 0; stroke: #d62728; stroke-width: 2.5"/>
    </g>
    <g id="text_20">
     <!-- ELIA last accepted bid volume -->
     <g transform="translate(99.545455 67.047639) scale(0.1 -0.1)">
      <defs>
       <path id="DejaVuSans-4c" d="M 628 4666 
L 1259 4666 
L 1259 531 
L 3531 531 
L 3531 0 
L 628 0 
L 628 4666 
z
" transform="scale(0.015625)"/>
       <path id="DejaVuSans-49" d="M 628 4666 
L 1259 4666 
L 1259 0 
L 628 0 
L 628 4666 
z
" transform="scale(0.015625)"/>
       <path id="DejaVuSans-41" d="M 2188 4044 
L 1331 1722 
L 3047 1722 
L 2188 4044 
z
M 1831 4666 
L 2547 4666 
L 4325 0 
L 3669 0 
L 3244 1197 
L 1141 1197 
L 716 0 
L 50 0 
L 1831 4666 
z
" transform="scale(0.015625)"/>
       <path id="DejaVuSans-70" d="M 1159 525 
L 1159 -1331 
L 581 -1331 
L 581 3500 
L 1159 3500 
L 1159 2969 
Q 1341 3281 1617 3432 
Q 1894 3584 2278 3584 
Q 2916 3584 3314 3078 
Q 3713 2572 3713 1747 
Q 3713 922 3314 415 
Q 2916 -91 2278 -91 
Q 1894 -91 1617 61 
Q 1341 213 1159 525 
z
M 3116 1747 
Q 3116 2381 2855 2742 
Q 2594 3103 2138 3103 
Q 1681 3103 1420 2742 
Q 1159 2381 1159 1747 
Q 1159 1113 1420 752 
Q 1681 391 2138 391 
Q 2594 391 2855 752 
Q 3116 1113 3116 1747 
z
" transform="scale(0.015625)"/>
       <path id="DejaVuSans-62" d="M 3116 1747 
Q 3116 2381 2855 2742 
Q 2594 3103 2138 3103 
Q 1681 3103 1420 2742 
Q 1159 2381 1159 1747 
Q 1159 1113 1420 752 
Q 1681 391 2138 391 
Q 2594 391 2855 752 
Q 3116 1113 3116 1747 
z
M 1159 2969 
Q 1341 3281 1617 3432 
Q 1894 3584 2278 3584 
Q 2916 3584 3314 3078 
Q 3713 2572 3713 1747 
Q 3713 922 3314 415 
Q 2916 -91 2278 -91 
Q 1894 -91 1617 61 
Q 1341 213 1159 525 
L 1159 0 
L 581 0 
L 581 4863 
L 1159 4863 
L 1159 2969 
z
" transform="scale(0.015625)"/>
      </defs>
      <use xlink:href="#DejaVuSans-45"/>
      <use xlink:href="#DejaVuSans-4c" transform="translate(63.183594 0)"/>
      <use xlink:href="#DejaVuSans-49" transform="translate(118.896484 0)"/>
      <use xlink:href="#DejaVuSans-41" transform="translate(148.388672 0)"/>
      <use xlink:href="#DejaVuSans-20" transform="translate(216.796875 0)"/>
      <use xlink:href="#DejaVuSans-6c" transform="translate(248.583984 0)"/>
      <use xlink:href="#DejaVuSans-61" transform="translate(276.367188 0)"/>
      <use xlink:href="#DejaVuSans-73" transform="translate(337.646484 0)"/>
      <use xlink:href="#DejaVuSans-74" transform="translate(389.746094 0)"/>
      <use xlink:href="#DejaVuSans-20" transform="translate(428.955078 0)"/>
      <use xlink:href="#DejaVuSans-61" transform="translate(460.742188 0)"/>
      <use xlink:href="#DejaVuSans-63" transform="translate(522.021484 0)"/>
      <use xlink:href="#DejaVuSans-63" transform="translate(577.001953 0)"/>
      <use xlink:href="#DejaVuSans-65" transform="translate(631.982422 0)"/>
      <use xlink:href="#DejaVuSans-70" transform="translate(693.505859 0)"/>
      <use xlink:href="#DejaVuSans-74" transform="translate(756.982422 0)"/>
      <use xlink:href="#DejaVuSans-65" transform="translate(796.191406 0)"/>
      <use xlink:href="#DejaVuSans-64" transform="translate(857.714844 0)"/>
      <use xlink:href="#DejaVuSans-20" transform="translate(921.191406 0)"/>
      <use xlink:href="#DejaVuSans-62" transform="translate(952.978516 0)"/>
      <use xlink:href="#DejaVuSans-69" transform="translate(1016.455078 0)"/>
      <use xlink:href="#DejaVuSans-64" transform="translate(1044.238281 0)"/>
      <use xlink:href="#DejaVuSans-20" transform="translate(1107.714844 0)"/>
      <use xlink:href="#DejaVuSans-76" transform="translate(1139.501953 0)"/>
      <use xlink:href="#DejaVuSans-6f" transform="translate(1198.681641 0)"/>
      <use xlink:href="#DejaVuSans-6c" transform="translate(1259.863281 0)"/>
      <use xlink:href="#DejaVuSans-75" transform="translate(1287.646484 0)"/>
      <use xlink:href="#DejaVuSans-6d" transform="translate(1351.025391 0)"/>
      <use xlink:href="#DejaVuSans-65" transform="translate(1448.4375 0)"/>
     </g>
    </g>
   </g>
  </g>
 </g>
 <defs>
  <clipPath id="p6ae023592d">
   <rect x="62.545455" y="35.771077" width="846.487273" height="414.731569"/>
  </clipPath>
 </defs>
</svg>
